{"glyphs":{"0":{"ha":869,"x_min":46,"x_max":826,"o":"m 826 513 q 729 142 826 293 q 447 -15 632 -8 q 158 109 271 -22 q 46 489 46 240 q 86 746 46 638 q 194 910 126 854 q 340 985 261 965 q 503 990 418 1006 q 264 508 269 904 q 310 228 263 317 q 446 143 358 139 q 577 255 535 149 q 617 514 619 361 q 608 624 617 572 q 576 735 599 676 q 503 830 553 793 q 382 871 454 867 q 510 924 435 921 q 656 885 586 926 q 776 746 726 844 q 826 513 826 647 z "},"1":{"ha":521,"x_min":-46,"x_max":458,"o":"m 443 971 q 433 469 424 876 q 458 -17 442 61 q 328 -6 406 -4 q 197 -21 250 -8 q 226 651 229 99 q 173 608 208 625 q 97 587 138 590 q 17 613 57 583 q -46 701 -24 642 q 133 830 81 771 q 214 971 186 889 q 443 971 354 957 z "},"2":{"ha":769,"x_min":24,"x_max":724,"o":"m 719 208 q 709 144 711 182 q 708 56 707 107 q 710 -14 710 4 q 384 2 578 0 q 61 -7 190 4 q 222 237 79 31 q 425 544 365 443 q 463 729 482 640 q 351 826 444 818 q 272 803 306 831 q 226 732 239 775 q 220 639 214 689 q 251 549 226 589 q 136 559 188 538 q 60 622 85 581 q 30 716 36 664 q 49 819 24 768 q 181 954 90 913 q 383 983 272 996 q 649 835 575 960 q 657 536 724 710 q 559 367 633 474 q 425 192 485 261 q 719 208 569 189 z "},"3":{"ha":757,"x_min":17,"x_max":724,"o":"m 479 544 q 656 444 589 526 q 713 263 724 363 q 583 42 697 119 q 304 -24 469 -36 q 90 76 164 -12 q 56 281 17 165 q 307 125 168 128 q 428 172 374 124 q 493 290 483 221 q 427 449 506 376 q 215 526 349 521 q 387 633 296 547 q 468 801 478 719 q 350 794 403 804 q 247 783 297 783 q 128 835 174 782 q 125 989 83 888 q 274 961 192 964 q 457 965 357 958 q 621 967 557 972 q 656 788 664 876 q 597 628 647 699 q 479 544 547 558 z "},"4":{"ha":760,"x_min":-11,"x_max":781,"o":"m 781 322 q 646 275 740 296 q 665 1 656 46 q 538 13 617 15 q 411 -3 460 10 q 432 249 425 50 q 164 318 254 249 q 67 1008 -11 451 q 165 994 135 996 q 268 1003 194 993 q 252 738 251 908 q 281 507 253 567 q 438 440 311 443 q 426 963 446 861 q 650 963 560 951 q 640 469 629 882 q 732 511 706 490 q 781 322 736 435 z "},"5":{"ha":764,"x_min":54,"x_max":719,"o":"m 318 649 q 517 623 432 658 q 643 528 601 588 q 702 407 685 468 q 714 292 719 346 q 594 61 699 143 q 326 -11 489 -21 q 126 91 199 -3 q 86 296 54 185 q 333 151 182 156 q 453 195 397 150 q 511 308 510 240 q 403 492 514 432 q 146 506 293 551 q 135 942 167 771 q 493 993 321 1003 q 612 944 571 988 q 641 843 653 900 q 569 744 629 786 q 523 808 567 786 q 424 827 479 829 q 319 817 369 825 q 319 751 319 808 q 318 649 318 693 z "},"6":{"ha":779,"x_min":33,"x_max":756,"o":"m 501 644 q 690 544 624 633 q 743 311 756 456 q 626 65 728 150 q 386 -17 524 -21 q 135 103 228 -11 q 38 404 43 218 q 68 671 33 556 q 163 850 103 786 q 289 945 224 914 q 422 979 354 976 q 494 973 457 981 q 570 945 531 965 q 640 883 610 925 q 681 779 669 840 q 590 826 644 815 q 488 828 536 838 q 403 799 439 819 q 244 321 208 682 q 283 206 251 253 q 356 146 315 158 q 438 143 397 133 q 506 197 478 153 q 536 308 535 242 q 468 477 540 432 q 297 465 396 522 q 358 600 300 549 q 501 644 415 651 z "},"7":{"ha":650,"x_min":-32,"x_max":686,"o":"m 421 0 q 349 6 394 1 q 274 10 304 10 q 138 3 244 10 q 251 353 160 68 q 390 768 343 638 q 149 774 256 765 q 17 836 65 779 q -21 1001 -32 893 q 83 980 19 988 q 188 971 147 972 q 322 969 229 969 q 435 968 414 968 q 560 970 475 971 q 686 972 644 969 q 521 492 597 778 q 421 0 444 206 z "},"8":{"ha":651,"x_min":8,"x_max":628,"o":"m 621 292 q 537 71 628 150 q 314 -11 446 -8 q 92 68 174 -12 q 8 253 10 149 q 47 398 8 339 q 181 515 85 457 q 81 683 103 590 q 80 801 67 749 q 127 892 93 853 q 208 953 161 931 q 307 982 254 976 q 513 926 436 994 q 586 761 589 858 q 449 539 582 638 q 572 419 526 476 q 621 292 617 361 m 328 879 q 247 833 274 874 q 247 731 221 792 q 340 624 269 681 q 432 747 414 688 q 413 843 449 801 q 328 879 378 885 m 219 165 q 238 142 219 165 q 314 122 256 119 q 406 165 372 125 q 433 268 440 206 q 396 339 428 306 q 304 415 364 372 q 192 267 203 350 q 219 165 183 211 z "},"9":{"ha":779,"x_min":28,"x_max":751,"o":"m 282 321 q 94 420 161 332 q 42 654 28 508 q 159 901 56 815 q 399 981 263 986 q 649 861 557 975 q 747 561 740 747 q 728 339 751 439 q 665 176 704 239 q 574 69 626 113 q 468 6 521 25 q 363 -15 415 -12 q 264 -3 313 -17 q 167 58 215 10 q 104 186 118 107 q 194 138 140 150 q 297 135 249 126 q 381 167 344 144 q 539 644 575 283 q 515 732 533 693 q 470 792 496 771 q 415 822 444 813 q 357 824 386 832 q 303 797 328 815 q 264 741 279 778 q 247 657 249 704 q 316 488 244 532 q 486 500 388 443 q 426 365 483 417 q 282 321 368 314 z "}," ":{"ha":489,"x_min":0,"x_max":0,"o":""},"!":{"ha":303,"x_min":-58,"x_max":285,"o":"m -58 1136 q 50 1161 -10 1160 q 163 1142 110 1163 q 251 1068 217 1122 q 281 936 285 1014 q 246 300 247 326 q 85 300 175 324 q 72 560 82 356 q 53 881 63 764 q 42 974 47 940 q 12 1060 38 1008 q -58 1136 -14 1111 m 164 269 q 228 246 204 269 q 258 194 251 222 q 263 135 264 167 q 236 40 260 81 q 165 0 213 0 q 91 44 114 0 q 69 144 68 88 q 164 269 75 269 z "},"\"":{"ha":1157,"x_min":0,"x_max":0,"o":""},"#":{"ha":581,"x_min":57,"x_max":569,"o":"m 568 281 q 569 182 556 236 q 493 186 517 185 q 501 78 499 117 q 403 78 454 90 q 406 137 404 100 q 408 189 408 174 q 226 189 310 190 q 233 78 228 164 q 135 78 189 90 q 140 186 138 113 q 60 182 115 185 q 57 274 64 228 q 102 270 74 272 q 143 268 131 268 l 143 375 q 60 372 118 375 q 57 464 64 418 q 100 460 72 463 q 140 458 128 458 q 135 588 138 542 q 228 589 178 582 q 221 456 224 543 q 408 460 314 454 q 406 520 408 478 q 403 588 404 563 q 494 589 447 582 q 488 464 489 496 q 528 467 501 465 q 568 471 554 469 q 569 372 556 426 q 486 376 525 375 q 489 275 486 342 q 568 281 542 278 m 222 265 q 410 269 317 265 q 410 379 411 328 q 219 379 307 381 q 222 265 219 304 z "},"%":{"ha":1276,"x_min":-3,"x_max":1244,"o":"m 1029 601 q 1159 535 1108 586 q 1227 418 1210 483 q 1239 276 1244 353 q 1141 70 1228 142 q 939 3 1054 -1 q 742 94 814 7 q 674 286 671 182 q 772 463 679 408 q 911 478 846 507 q 969 394 964 456 q 872 385 915 419 q 828 274 828 350 q 850 195 828 229 q 905 151 872 161 q 972 146 938 140 q 1032 185 1006 151 q 1065 275 1058 219 q 997 463 1079 386 q 804 494 914 539 q 885 587 817 558 q 1029 601 953 615 m 356 1117 q 524 1003 472 1096 q 565 793 575 911 q 468 587 554 658 q 267 518 382 515 q 69 611 140 524 q 1 803 -3 699 q 100 979 6 925 q 238 994 174 1022 q 296 911 290 969 q 199 901 243 936 q 154 789 156 867 q 208 677 154 714 q 322 670 263 640 q 393 790 382 700 q 324 979 406 903 q 131 1011 242 1056 q 211 1103 143 1075 q 356 1117 279 1132 m 764 1078 q 242 0 597 683 q 429 0 340 25 q 960 1083 579 363 q 764 1078 864 1068 z "},"(":{"ha":463,"x_min":26,"x_max":549,"o":"m 549 1039 q 326 809 390 954 q 261 450 261 664 q 266 336 261 393 q 288 201 271 279 q 331 56 304 122 q 409 -72 358 -10 q 526 -171 460 -135 q 169 1 311 -175 q 36 443 26 176 q 85 692 42 581 q 188 870 128 804 q 319 979 249 936 q 449 1035 389 1022 q 549 1039 508 1047 z "},")":{"ha":507,"x_min":-42,"x_max":481,"o":"m -42 1071 q 58 1067 -1 1079 q 188 1011 118 1054 q 319 902 258 968 q 422 724 379 836 q 471 475 465 613 q 338 33 481 208 q -21 -139 194 -143 q 97 -40 46 -103 q 175 88 147 22 q 219 233 203 154 q 241 369 236 313 q 246 482 246 425 q 181 841 246 696 q -42 1071 117 986 z "},"+":{"ha":635,"x_min":36,"x_max":625,"o":"m 621 451 q 612 356 611 413 q 625 265 613 300 q 455 272 531 268 q 357 276 379 275 q 290 278 335 278 q 196 276 244 278 q 36 267 147 274 q 40 449 63 374 q 210 444 135 446 q 299 440 285 442 q 352 439 313 439 q 396 440 392 439 q 476 444 400 440 q 621 451 553 449 m 236 632 q 331 623 275 622 q 422 636 388 624 q 416 466 419 542 q 411 368 413 390 q 410 301 410 346 q 412 207 410 256 q 421 47 414 158 q 239 51 314 74 q 244 221 242 146 q 247 310 246 296 q 249 363 249 324 q 248 407 249 403 q 243 488 247 411 q 236 632 239 564 z "},",":{"ha":258,"x_min":0,"x_max":260,"o":"m 158 208 q 257 74 260 208 q 251 19 256 47 q 231 -56 247 -10 q 190 -138 215 -103 q 115 -203 164 -174 q 0 -239 65 -233 q 60 -165 39 -204 q 83 -89 81 -126 q 83 -24 86 -51 q 73 38 81 4 q 64 83 65 72 q 83 174 58 140 q 158 208 108 208 z "},"-":{"ha":624,"x_min":35,"x_max":624,"o":"m 619 432 q 610 337 610 393 q 624 246 611 281 q 453 252 529 249 q 356 257 378 256 q 288 258 333 258 q 194 256 243 258 q 35 247 146 254 q 39 429 61 354 q 208 424 133 426 q 297 421 283 422 q 351 419 311 419 q 394 420 390 419 q 475 425 399 421 q 619 432 551 429 z "},".":{"ha":231,"x_min":35,"x_max":232,"o":"m 131 269 q 210 228 189 269 q 229 135 232 188 q 203 40 226 81 q 132 0 179 0 q 58 44 81 0 q 36 144 35 88 q 62 234 39 199 q 131 269 85 269 z "},"/":{"ha":753,"x_min":35,"x_max":753,"o":"m 557 1061 q 753 1067 657 1051 q 222 -17 372 346 q 35 -17 133 8 q 557 1061 390 667 z "},":":{"ha":265,"x_min":33,"x_max":232,"o":"m 131 250 q 229 115 232 250 q 203 21 226 61 q 132 -19 179 -19 q 56 24 79 -19 q 36 125 33 68 q 60 215 38 179 q 131 250 83 250 m 131 917 q 209 876 188 917 q 229 782 231 835 q 203 687 226 728 q 132 646 179 646 q 56 690 79 646 q 36 792 33 733 q 60 880 38 844 q 131 917 83 915 z "},";":{"ha":326,"x_min":35,"x_max":293,"o":"m 192 917 q 272 876 250 917 q 290 782 293 835 q 265 687 288 728 q 194 646 242 646 q 119 690 142 646 q 99 792 96 733 q 122 880 100 844 q 192 917 144 915 m 192 250 q 272 209 250 250 q 290 115 293 168 q 285 60 289 88 q 265 -14 281 33 q 224 -97 249 -61 q 149 -162 199 -132 q 35 -197 100 -192 q 102 -101 82 -154 q 121 -15 122 -49 q 110 67 119 18 q 99 125 100 117 q 117 215 92 181 q 192 250 142 250 z "},"=":{"ha":644,"x_min":38,"x_max":626,"o":"m 622 539 q 613 444 613 500 q 626 353 614 388 q 456 359 532 356 q 358 364 381 363 q 291 365 336 365 q 197 363 246 365 q 38 354 149 361 q 42 536 64 461 q 211 531 136 533 q 300 528 286 529 q 353 526 314 526 q 397 527 393 526 q 478 532 401 528 q 622 539 554 536 m 622 272 q 613 177 613 233 q 626 86 614 121 q 456 92 532 89 q 358 97 381 96 q 291 99 336 99 q 197 97 246 99 q 38 88 149 94 q 42 269 64 194 q 211 265 136 267 q 300 261 286 263 q 353 260 314 260 q 397 260 393 260 q 478 265 401 261 q 622 272 554 269 z "},"?":{"ha":724,"x_min":-53,"x_max":738,"o":"m 422 278 q 233 278 314 303 q 274 442 239 356 q 401 665 310 529 q 450 794 443 728 q 424 908 457 861 q 322 960 390 954 q 216 915 256 965 q 178 797 176 864 q 214 669 181 731 q 13 743 78 646 q -3 953 -53 840 q 140 1094 42 1051 q 357 1124 239 1136 q 652 964 567 1100 q 651 654 738 828 q 591 567 632 617 q 515 479 550 517 q 452 388 481 442 q 422 278 424 333 m 328 247 q 258 212 281 247 q 235 122 236 176 q 255 22 232 65 q 329 -22 278 -22 q 400 18 376 -22 q 426 113 424 58 q 408 206 429 165 q 328 247 386 247 z "},"A":{"ha":818,"x_min":-167,"x_max":790,"o":"m 665 986 q 703 511 646 910 q 790 -12 761 113 q 658 -1 738 1 q 528 -14 579 -3 q 531 192 540 36 q 342 218 469 201 q 292 39 311 101 q 219 -64 272 -21 q 102 -123 167 -107 q -36 -118 38 -139 q -167 -36 -110 -97 q 16 22 -57 -37 q 119 164 89 82 q 144 238 136 211 q -121 235 -47 251 q -124 311 -126 282 q 176 344 -40 335 q 258 715 226 524 q 283 964 289 906 q 481 979 329 985 q 665 986 632 974 m 371 346 q 519 338 449 343 q 461 818 497 582 q 371 346 426 590 z "},"B":{"ha":789,"x_min":42,"x_max":818,"o":"m 543 547 q 739 426 660 533 q 813 189 818 318 q 767 8 808 88 q 663 -114 725 -71 q 526 -175 601 -157 q 382 -181 451 -193 q 253 -126 313 -168 q 163 -19 193 -85 q 476 -33 363 -99 q 593 215 590 32 q 515 425 596 339 q 281 519 433 511 q 442 609 375 549 q 503 754 508 669 q 459 850 499 819 q 353 871 419 881 q 247 706 249 858 q 261 328 247 614 q 285 -4 275 43 q 164 6 233 8 q 42 -8 94 3 q 60 474 63 89 q 42 964 58 858 q 300 979 164 954 q 569 957 474 1010 q 675 781 665 904 q 645 640 679 713 q 543 547 611 568 z "},"C":{"ha":658,"x_min":24,"x_max":769,"o":"m 489 515 q 516 630 521 575 q 472 720 511 685 q 381 744 432 756 q 281 657 317 731 q 241 489 244 583 q 246 294 238 394 q 259 221 250 257 q 286 140 268 185 q 331 60 304 96 q 399 -10 358 25 q 492 -61 439 -44 q 614 -85 544 -78 q 769 -74 683 -93 q 628 -168 707 -135 q 472 -205 550 -201 q 317 -179 393 -208 q 181 -92 240 -150 q 81 62 121 -35 q 36 282 42 158 q 118 669 24 515 q 357 860 213 824 q 529 863 439 886 q 647 769 619 840 q 631 615 676 696 q 489 515 585 533 z "},"D":{"ha":836,"x_min":40,"x_max":814,"o":"m 40 964 q 415 1064 226 1064 q 701 918 589 1065 q 806 513 814 771 q 797 397 804 454 q 772 281 789 340 q 732 171 756 221 q 672 81 708 121 q 591 21 636 42 q 483 1 546 0 q 349 32 421 3 q 530 215 476 94 q 593 507 583 335 q 550 835 607 739 q 400 928 493 932 q 346 914 368 926 q 311 884 324 901 q 291 834 299 867 q 281 775 283 801 q 278 704 279 749 q 317 -1 263 346 q 53 -11 106 3 q 76 374 76 151 q 63 741 75 597 q 40 964 51 885 z "},"E":{"ha":594,"x_min":-33,"x_max":606,"o":"m 604 215 q 599 134 606 171 q 578 74 593 97 q 548 33 563 50 q 507 7 533 15 q 465 -7 481 -1 q 419 -12 450 -12 q 376 -11 388 -11 q 336 -7 365 -11 l 307 -3 q 93 -10 235 8 q 108 389 107 113 q 90 767 110 665 q -33 944 50 929 q 61 976 1 972 q 269 967 94 981 q 549 968 444 954 q 540 856 557 899 q 487 801 522 814 q 405 785 451 789 q 307 788 358 782 q 267 790 281 790 q 282 601 274 736 q 492 614 310 603 q 490 578 492 606 q 489 520 489 550 q 492 463 489 490 q 288 469 414 481 q 292 325 289 426 q 299 175 296 224 q 481 178 399 167 q 604 215 564 190 z "},"F":{"ha":597,"x_min":-25,"x_max":604,"o":"m 600 968 q 597 897 604 928 q 577 847 589 867 q 540 815 565 828 q 497 797 515 803 q 442 790 478 792 q 390 790 407 789 q 333 795 372 792 q 285 799 294 799 q 296 565 293 722 q 528 571 364 564 q 526 531 528 561 q 524 478 525 501 q 525 418 524 456 q 299 433 438 439 q 318 -7 301 108 q 81 -6 233 10 q 95 398 94 93 q 88 783 96 703 q 51 896 82 844 q -25 964 21 947 q 76 994 10 990 q 299 977 111 997 q 600 968 486 957 z "},"G":{"ha":738,"x_min":-15,"x_max":701,"o":"m 701 433 q 692 370 694 406 q 691 312 690 335 q 696 217 692 289 q 701 106 700 144 q 565 17 640 49 q 415 -17 490 -14 q 266 7 339 -21 q 135 89 193 35 q 40 234 78 143 q -3 440 3 325 q 76 805 -15 660 q 306 983 167 950 q 478 986 383 1008 q 601 897 574 964 q 594 757 629 828 q 468 669 560 686 q 482 793 497 740 q 421 872 467 846 q 328 876 375 897 q 216 718 249 840 q 199 451 183 596 q 222 351 204 400 q 272 247 239 301 q 365 152 304 192 q 507 100 426 113 q 516 265 519 158 q 492 429 513 372 q 569 428 549 428 q 630 431 590 429 q 701 433 669 433 z "},"H":{"ha":839,"x_min":-28,"x_max":801,"o":"m 786 968 q 776 477 767 876 q 801 0 785 78 q 672 10 753 13 q 542 -4 590 8 q 569 449 564 81 q 371 460 510 454 q 403 4 374 100 q 144 3 256 22 q 169 460 163 172 q -24 443 24 456 q -26 474 -24 446 q -26 510 -28 503 q 172 553 85 538 q 169 783 175 710 q -14 1025 150 979 q 88 1072 25 1061 q 211 1064 150 1082 q 318 982 272 1046 q 368 819 364 918 q 371 582 371 686 q 571 596 485 596 q 558 968 571 889 q 786 968 690 954 z "},"I":{"ha":329,"x_min":35,"x_max":294,"o":"m 51 978 q 279 978 182 964 q 269 481 260 883 q 294 0 278 79 q 165 11 246 14 q 35 -4 83 8 q 63 482 57 85 q 51 978 68 879 z "},"J":{"ha":403,"x_min":-111,"x_max":369,"o":"m 118 975 q 363 975 260 961 q 353 742 350 881 q 363 381 357 603 q 365 65 369 158 q 295 -122 360 -54 q 150 -197 231 -189 q -6 -178 69 -204 q -111 -104 -82 -153 q 83 -44 10 -125 q 160 179 157 38 q 146 610 163 314 q 118 975 129 907 z "},"K":{"ha":760,"x_min":35,"x_max":885,"o":"m 51 979 q 275 979 181 965 q 265 479 257 888 q 290 -4 274 71 q 163 6 242 8 q 35 -8 83 3 q 63 481 57 79 q 51 979 68 883 m 733 981 q 688 749 725 846 q 606 600 651 651 q 485 489 561 549 q 627 169 499 340 q 885 -56 756 -3 q 653 -77 761 -118 q 465 66 546 -36 q 338 293 385 168 q 290 524 292 418 q 463 705 400 585 q 513 972 526 825 q 733 981 610 957 z "},"L":{"ha":568,"x_min":-29,"x_max":619,"o":"m 618 204 q 608 99 619 143 q 572 31 597 54 q 522 -5 546 8 q 459 -18 497 -18 q 398 -17 421 -18 q 340 -9 375 -15 q 299 -1 304 -3 q 85 0 221 14 q 98 372 96 97 q 93 724 100 646 q 55 876 89 808 q -29 956 21 944 q 75 1000 10 994 q 199 967 140 1006 q 272 847 258 928 q 282 758 278 814 q 288 620 286 703 q 291 479 290 538 q 293 315 292 421 q 294 172 294 210 q 618 204 544 135 z "},"M":{"ha":1072,"x_min":-42,"x_max":1006,"o":"m 990 978 q 981 483 972 886 q 1006 4 989 79 q 881 14 960 17 q 757 -1 803 11 q 777 252 769 53 q 783 653 785 451 q 692 426 733 564 q 640 190 650 288 q 579 189 631 190 q 493 188 528 188 q 457 192 458 189 q 311 656 396 461 q 311 576 311 636 q 311 490 311 515 q 311 408 311 464 q 313 324 311 353 q 315 247 314 294 q 319 171 317 200 q 324 108 321 142 q 333 49 328 74 q 343 6 338 25 q 90 4 207 24 q 123 434 114 154 q 122 790 132 714 q 77 946 115 888 q -42 1029 39 1004 q 53 1077 -7 1064 q 175 1075 113 1090 q 274 1015 238 1060 q 365 874 319 957 q 430 747 410 792 q 498 578 450 701 q 554 435 546 454 q 647 675 578 490 q 771 978 715 860 l 771 978 l 771 978 q 990 978 897 964 z "},"N":{"ha":876,"x_min":-28,"x_max":814,"o":"m 800 976 q 790 481 781 882 q 814 0 799 79 q 690 9 768 11 q 565 -6 613 7 q 575 60 571 13 q 503 317 578 146 q 340 619 428 489 q 340 542 340 596 q 341 460 340 488 q 342 382 342 432 q 343 302 342 332 q 346 230 344 272 q 350 159 347 188 q 356 99 353 131 q 363 43 358 67 q 374 1 368 19 q 122 0 236 19 q 149 431 144 149 q 143 788 154 714 q -28 1032 125 988 q 68 1080 10 1068 q 189 1069 126 1092 q 290 992 251 1047 q 292 990 290 990 l 292 989 q 426 747 332 929 q 592 403 519 564 q 582 976 600 871 q 800 976 715 963 z "},"O":{"ha":811,"x_min":40,"x_max":815,"o":"m 44 519 q 115 823 50 696 q 292 997 179 950 q 558 983 404 1043 q 453 951 500 975 q 376 897 407 926 q 324 822 346 867 q 290 742 301 778 q 272 655 279 706 q 263 577 264 604 q 260 510 261 550 q 292 242 253 354 q 417 124 331 131 q 549 208 500 117 q 601 496 597 300 q 554 753 604 647 q 406 889 504 858 q 496 910 449 908 q 589 897 543 911 q 676 846 635 882 q 749 759 718 810 q 798 633 781 708 q 813 469 815 558 q 695 94 806 218 q 408 -32 585 -31 q 200 50 286 -32 q 77 254 114 132 q 44 519 40 376 z "},"P":{"ha":732,"x_min":50,"x_max":682,"o":"m 78 925 q 403 990 199 990 q 600 908 518 990 q 682 676 682 826 q 631 471 682 558 q 494 359 581 383 q 293 407 408 335 q 383 430 346 408 q 441 489 421 451 q 470 565 461 526 q 483 656 479 604 q 461 845 494 797 q 365 889 428 893 q 261 724 267 885 q 292 4 247 285 q 50 -7 96 4 q 81 356 72 149 q 88 714 90 563 q 78 925 86 865 z "},"Q":{"ha":879,"x_min":54,"x_max":913,"o":"m 694 76 q 717 42 699 71 q 740 6 735 14 q 763 -27 746 -3 q 790 -61 781 -51 q 816 -89 799 -71 q 847 -115 833 -107 q 877 -133 860 -124 q 913 -149 894 -143 q 790 -183 846 -181 q 690 -160 733 -186 q 617 -101 647 -135 q 554 -17 586 -68 q 419 -37 492 -37 q 255 9 328 -37 q 139 134 182 56 q 75 308 96 213 q 57 510 54 404 q 127 811 63 685 q 303 984 192 938 q 568 971 415 1031 q 465 938 511 963 q 388 885 418 914 q 336 810 358 856 q 302 730 314 765 q 283 644 290 694 q 274 567 276 593 q 271 500 272 542 q 280 320 267 403 q 331 179 293 238 q 426 117 368 121 q 472 121 451 114 q 378 211 422 194 q 565 215 485 257 q 610 486 608 311 q 563 741 613 636 q 417 876 514 846 q 506 898 458 896 q 599 885 553 900 q 685 834 644 869 q 758 748 726 799 q 806 623 789 697 q 821 460 824 549 q 694 76 813 204 z "},"R":{"ha":694,"x_min":35,"x_max":867,"o":"m 61 926 q 368 993 183 993 q 580 928 490 993 q 679 721 669 864 q 636 542 685 624 q 513 431 588 461 q 563 211 522 322 q 685 6 604 100 q 867 -112 765 -89 q 650 -137 750 -175 q 476 -2 550 -100 q 361 217 403 96 q 318 443 319 338 q 481 704 476 489 q 449 844 482 801 q 354 882 417 886 q 280 842 301 879 q 256 733 258 806 q 253 651 256 724 q 249 510 250 579 q 249 350 249 442 q 257 164 250 258 q 275 -8 264 69 q 35 -19 81 -8 q 66 348 57 138 q 72 713 75 558 q 61 926 69 867 z "},"S":{"ha":622,"x_min":-25,"x_max":635,"o":"m 374 658 q 426 767 424 707 q 396 867 429 828 q 317 901 363 906 q 234 847 261 897 q 235 731 207 796 q 297 651 250 693 q 396 569 343 608 q 501 485 449 529 q 589 385 553 442 q 628 271 625 329 q 528 49 635 128 q 304 -31 422 -31 q 65 48 156 -31 q -15 229 -25 126 q 81 379 -6 338 q 236 385 168 421 q 169 276 183 347 q 191 147 154 204 q 306 92 228 89 q 403 137 368 94 q 431 246 439 179 q 390 320 425 283 q 307 392 356 357 q 209 465 258 426 q 117 559 160 503 q 60 681 75 615 q 104 897 29 810 q 297 996 179 983 q 514 937 435 1010 q 582 763 593 864 q 539 672 575 706 q 459 637 503 638 q 374 658 415 636 z "},"T":{"ha":715,"x_min":-33,"x_max":694,"o":"m 694 972 q 689 753 678 901 q 468 775 629 778 q 474 319 464 592 q 494 -6 483 46 q 370 3 447 6 q 246 -10 293 1 q 269 308 263 53 q 272 771 276 564 q 179 774 208 771 q -8 1019 -33 786 q 181 966 47 974 q 478 967 314 958 q 694 972 642 976 z "},"U":{"ha":793,"x_min":-37,"x_max":821,"o":"m 715 199 q 748 86 726 119 q 821 29 769 53 q 701 -57 790 -42 q 551 -8 611 -72 q 501 113 519 29 q 381 -22 454 14 q 218 -25 307 -57 q 160 9 185 -14 q 120 58 136 32 q 94 126 104 83 q 81 202 85 168 q 76 294 76 236 q 76 392 75 353 q 80 501 78 431 q 83 613 82 572 q 65 889 88 811 q -37 1029 42 967 q 47 1044 3 1042 q 135 1037 90 1047 q 215 1003 179 1026 q 275 934 251 979 q 301 826 299 889 q 296 660 303 790 q 289 411 289 531 q 306 242 289 292 q 389 171 335 151 q 467 274 439 188 q 482 339 478 304 q 486 569 481 415 q 489 822 492 722 q 469 975 486 921 q 602 970 519 969 q 731 975 685 971 q 709 620 718 897 q 715 199 700 343 z "},"V":{"ha":744,"x_min":-112,"x_max":756,"o":"m 471 985 q 756 974 574 968 q 649 549 704 856 q 560 -21 594 242 q 376 -11 485 -11 q 210 -22 268 -11 q 163 408 201 174 q 88 793 124 643 q 17 965 61 908 q -112 1046 -28 1021 q -1 1098 -62 1088 q 121 1088 61 1108 q 228 999 181 1068 q 294 825 276 931 q 338 555 299 803 q 394 218 378 307 q 449 619 424 356 q 471 985 474 882 z "},"W":{"ha":1078,"x_min":-99,"x_max":1078,"o":"m 800 986 q 949 974 878 975 q 1078 975 1021 972 q 975 553 1032 874 q 883 -17 918 232 q 617 -8 719 7 q 621 3 619 0 q 603 356 626 153 q 539 703 581 558 q 465 286 488 442 q 446 19 442 131 q 449 8 447 15 q 451 0 451 1 q 193 0 304 18 q 154 444 185 203 q 97 799 124 686 q 27 967 71 913 q -99 1047 -17 1021 q 10 1097 -50 1086 q 128 1087 71 1107 q 233 1000 186 1067 q 299 829 281 933 q 327 642 304 797 q 364 403 350 488 q 447 982 406 597 q 642 985 533 964 q 683 770 665 878 q 716 552 701 663 q 738 396 731 442 q 791 738 772 564 q 800 986 810 913 z "},"X":{"ha":818,"x_min":-29,"x_max":824,"o":"m 824 979 q 767 884 801 950 q 683 715 733 818 q 586 531 632 613 q 673 311 625 438 q 752 109 721 185 q 810 -7 783 33 q 526 -7 650 15 q 501 139 524 0 q 449 351 478 278 q 406 222 426 297 q 371 79 386 146 q 351 -1 356 13 q 68 -1 228 19 q 128 113 92 35 q 221 313 165 190 q 314 515 276 436 q 161 829 206 768 q 76 918 117 889 q -29 951 35 947 q 76 1024 7 1000 q 221 1028 144 1047 q 342 943 297 1008 q 369 887 354 924 q 394 822 385 850 q 422 732 403 793 q 449 647 442 671 q 490 752 469 694 q 522 849 510 810 q 548 935 535 889 q 564 989 561 982 q 824 979 676 958 z "},"Y":{"ha":738,"x_min":-47,"x_max":774,"o":"m 514 467 q 511 235 506 313 q 539 31 517 157 q 286 31 429 47 q 317 262 311 111 q 310 467 324 413 q 138 818 174 768 q 53 903 93 876 q -47 935 14 931 q 51 999 -12 981 q 182 999 114 1018 q 288 921 250 979 q 414 667 364 811 l 415 660 q 417 651 417 653 q 419 667 419 654 q 461 781 440 714 q 501 917 482 847 q 521 990 519 986 q 774 982 636 963 q 729 917 754 958 q 674 814 704 875 q 622 705 644 753 q 565 578 600 657 q 514 467 529 500 z "},"Z":{"ha":708,"x_min":33,"x_max":729,"o":"m 369 206 q 429 199 399 201 q 483 197 460 197 q 542 199 507 197 q 596 203 578 201 q 655 210 614 206 q 710 217 696 215 q 698 153 700 190 q 698 65 696 115 q 700 -4 700 14 q 365 12 560 10 q 33 3 169 14 q 400 786 204 338 q 211 785 269 781 q 83 845 129 790 q 49 1004 38 900 q 147 984 88 992 q 251 975 207 976 q 377 973 296 974 q 488 971 458 972 q 608 973 526 974 q 729 975 689 972 q 563 627 688 924 q 369 206 439 331 z "},"a":{"ha":651,"x_min":-4,"x_max":711,"o":"m 594 513 q 585 428 589 468 q 578 317 582 389 q 579 188 574 246 q 597 71 585 129 q 638 -25 608 13 q 711 -69 668 -62 q 640 -112 682 -96 q 556 -131 599 -129 q 474 -106 513 -133 q 418 -21 435 -78 q 403 76 407 14 q 231 -21 349 -21 q 158 -6 194 -21 q 83 46 122 10 q 20 156 44 82 q -4 332 -4 231 q 20 499 -4 426 q 85 611 44 571 q 169 672 126 651 q 258 697 213 692 q 398 655 342 707 q 442 535 454 603 q 399 563 428 553 q 334 567 369 572 q 265 540 299 561 q 208 463 232 518 q 183 326 185 407 q 194 231 182 279 q 235 146 206 182 q 307 113 265 110 q 365 153 340 114 q 397 253 389 192 q 393 511 400 450 q 594 513 504 501 z "},"b":{"ha":724,"x_min":-60,"x_max":694,"o":"m -60 1131 q 42 1158 -14 1156 q 151 1140 99 1161 q 239 1061 203 1119 q 276 914 275 1003 q 274 464 279 819 q 278 74 268 108 q 404 103 364 79 q 513 365 513 164 q 491 474 513 428 q 437 540 469 519 q 366 558 404 560 q 294 529 328 557 q 345 672 294 614 q 476 721 396 729 q 641 615 588 710 q 694 371 694 521 q 610 87 694 176 q 390 -3 526 -3 q 205 1 324 -3 q 65 0 86 4 q 87 286 83 79 q 87 644 90 493 q 79 892 83 796 q -60 1131 69 1092 z "},"c":{"ha":564,"x_min":19,"x_max":547,"o":"m 507 622 q 499 525 529 568 q 422 482 469 482 q 402 597 438 551 q 297 624 367 642 q 207 335 189 597 q 272 155 215 211 q 401 110 328 99 q 547 182 475 121 q 399 -17 518 29 q 182 8 292 -56 q 31 222 63 79 q 22 325 21 271 q 100 590 28 496 q 283 706 172 683 q 423 698 361 721 q 507 622 485 675 z "},"d":{"ha":754,"x_min":13,"x_max":769,"o":"m 647 243 q 769 35 663 93 q 653 -28 725 -22 q 538 6 582 -33 q 461 228 469 57 q 454 474 457 303 q 428 549 450 519 q 376 583 406 578 q 318 576 347 588 q 265 528 289 564 q 233 443 240 493 q 230 317 221 385 q 260 191 239 249 q 334 97 282 133 q 458 67 386 61 q 423 17 451 42 q 353 -23 394 -8 q 265 -39 311 -37 q 171 -15 219 -40 q 88 63 122 11 q 22 281 32 142 q 72 551 13 421 q 191 672 115 632 q 340 700 267 711 q 453 633 413 689 q 444 1167 453 1119 q 650 1167 564 1154 q 637 756 640 1082 q 647 243 633 429 z "},"e":{"ha":578,"x_min":6,"x_max":571,"o":"m 249 257 q 344 345 304 282 q 393 468 385 408 q 395 548 397 507 q 371 619 393 589 q 308 649 349 650 q 199 360 193 646 q 236 216 200 275 q 327 133 272 157 q 447 110 382 108 q 571 139 511 111 q 416 -5 514 31 q 228 -8 318 -40 q 72 120 138 25 q 6 346 6 215 q 35 528 6 450 q 110 647 64 606 q 207 707 157 688 q 310 726 257 726 q 487 662 422 726 q 543 453 551 597 q 515 353 539 396 q 456 287 490 310 q 381 252 421 264 q 307 242 342 240 q 249 257 272 244 z "},"f":{"ha":506,"x_min":6,"x_max":546,"o":"m 299 831 q 546 858 406 833 q 461 775 501 822 q 406 700 421 728 q 296 711 363 708 q 306 8 289 83 q 97 8 217 22 q 110 710 107 65 q 6 703 68 708 q 42 738 22 717 q 81 784 61 758 q 110 818 101 810 q 110 891 110 843 q 113 961 111 939 q 185 1185 117 1128 q 303 1220 231 1221 q 419 1181 375 1219 q 303 946 315 1119 q 299 831 301 918 z "},"g":{"ha":636,"x_min":4,"x_max":629,"o":"m 629 504 q 626 321 622 428 q 622 53 629 214 q 589 -204 614 -107 q 537 -317 572 -267 q 436 -406 501 -368 q 288 -446 371 -443 q 122 -369 188 -450 q 74 -183 56 -287 q 205 -284 131 -269 q 337 -248 279 -299 q 410 -108 394 -197 q 425 69 419 -58 q 286 -33 382 -22 q 95 49 178 -43 q 7 315 13 142 q 30 485 4 408 q 99 610 56 563 q 197 684 143 658 q 306 710 250 710 q 432 672 388 710 q 482 565 476 633 q 347 625 414 633 q 211 325 219 604 q 214 248 211 285 q 226 165 217 211 q 259 91 235 118 q 319 65 283 64 q 402 156 376 68 q 422 358 428 244 q 410 499 418 453 q 629 504 515 489 m 422 358 l 422 360 l 422 358 z "},"h":{"ha":681,"x_min":-103,"x_max":785,"o":"m 613 79 q 661 -10 622 13 q 785 -40 700 -33 q 639 -115 719 -103 q 498 -85 558 -128 q 432 44 438 -42 q 428 228 426 58 q 431 435 431 399 q 388 531 431 519 q 310 476 347 542 q 271 346 281 426 q 285 0 268 54 q 54 -6 178 11 q 81 494 72 104 q 82 963 89 885 q -103 1122 65 1110 q -2 1166 -62 1157 q 117 1159 58 1175 q 219 1090 175 1143 q 269 958 263 1038 q 274 532 279 843 q 340 639 297 593 q 430 701 383 685 q 518 710 476 717 q 588 660 560 704 q 615 542 615 615 q 611 402 615 510 q 606 230 607 294 q 613 79 606 165 z "},"i":{"ha":347,"x_min":40,"x_max":378,"o":"m 40 706 q 258 706 168 694 q 248 483 247 629 q 256 233 249 336 q 378 26 267 88 q 301 -28 349 -12 q 210 -37 254 -44 q 133 -4 165 -29 q 57 218 61 51 q 53 439 54 322 q 51 608 53 556 q 40 706 49 661 m 150 1099 q 226 1057 206 1099 q 244 963 247 1015 q 219 867 242 908 q 151 826 196 826 q 79 870 101 826 q 58 972 57 914 q 82 1063 60 1026 q 150 1099 104 1099 z "},"j":{"ha":319,"x_min":-183,"x_max":260,"o":"m 40 706 q 260 706 169 694 q 251 392 250 661 q 247 10 251 122 q 242 -65 244 -35 q 227 -142 239 -94 q 197 -223 215 -190 q 141 -286 178 -256 q 56 -331 104 -317 q -95 -318 -31 -356 q -183 -225 -160 -281 q -78 -208 -122 -226 q -10 -165 -33 -190 q 28 -99 14 -139 q 46 -28 42 -58 q 51 43 50 1 q 56 415 60 196 q 40 706 53 633 m 150 1099 q 226 1057 206 1099 q 244 963 247 1015 q 219 867 242 907 q 151 826 197 826 q 79 870 101 826 q 58 972 57 914 q 150 1099 64 1099 z "},"k":{"ha":678,"x_min":-90,"x_max":814,"o":"m 625 690 q 567 490 619 586 q 457 356 514 394 q 566 124 468 225 q 814 -39 664 24 q 545 -44 661 -93 q 360 126 429 6 q 292 396 292 247 q 406 502 372 415 q 435 690 440 589 q 625 690 564 678 m -90 1083 q 5 1126 -53 1117 q 117 1119 63 1135 q 213 1053 171 1104 q 261 926 254 1003 q 267 605 269 831 q 262 235 264 379 q 275 1 260 92 q 60 -3 176 15 q 84 481 76 104 q 85 931 92 857 q -90 1083 71 1072 z "},"l":{"ha":347,"x_min":35,"x_max":353,"o":"m 35 1114 q 240 1114 153 1100 q 230 681 229 1040 q 238 224 231 322 q 353 26 249 85 q 238 -35 311 -29 q 122 -3 165 -40 q 50 210 54 50 q 47 530 47 310 q 44 911 46 750 q 35 1114 42 1072 z "},"m":{"ha":985,"x_min":54,"x_max":1090,"o":"m 929 68 q 978 -32 943 -4 q 1090 -65 1013 -60 q 950 -136 1026 -129 q 817 -95 874 -143 q 751 40 761 -47 q 740 421 743 111 q 699 521 740 510 q 626 465 660 531 q 596 368 606 426 q 601 7 593 68 q 393 7 475 21 q 417 436 424 282 q 368 539 413 517 q 292 497 325 561 q 250 269 251 422 q 268 7 247 72 q 54 1 165 19 q 78 369 76 136 q 54 718 79 601 q 272 718 188 704 q 254 519 254 617 q 400 700 300 654 q 546 689 485 738 q 596 571 593 650 q 597 528 596 543 q 662 634 621 589 q 747 695 703 679 q 830 703 790 711 q 895 651 869 696 q 921 531 921 606 q 918 402 921 503 q 917 214 915 301 q 929 68 918 126 z "},"n":{"ha":621,"x_min":31,"x_max":735,"o":"m 553 85 q 611 -17 567 14 q 735 -53 656 -47 q 588 -126 671 -117 q 442 -86 504 -135 q 374 51 381 -37 q 371 151 371 88 q 372 307 371 214 q 374 450 374 400 q 329 533 374 529 q 256 481 290 536 q 226 378 228 436 q 243 7 221 82 q 31 1 136 19 q 57 367 53 150 q 31 729 61 585 q 246 729 114 713 q 229 554 233 665 q 311 678 258 633 q 415 725 364 724 q 506 679 465 726 q 553 544 547 632 q 547 314 556 506 q 553 85 539 122 z "},"o":{"ha":599,"x_min":18,"x_max":590,"o":"m 451 594 q 260 553 333 638 q 193 319 186 469 q 331 104 204 104 q 413 167 383 103 q 444 321 443 232 q 331 544 444 519 q 499 529 418 589 q 588 356 581 469 q 578 233 590 294 q 537 112 567 171 q 446 16 507 53 q 300 -21 385 -21 q 106 69 194 -21 q 18 322 18 158 q 92 591 18 492 q 275 703 167 690 q 384 683 336 710 q 451 594 432 656 z "},"p":{"ha":690,"x_min":29,"x_max":676,"o":"m 638 575 q 672 328 676 481 q 624 93 668 175 q 527 0 588 28 q 413 -20 467 -28 q 316 6 358 -12 q 265 46 274 25 q 442 153 382 33 q 475 447 501 274 q 408 551 464 525 q 303 517 350 579 q 246 338 258 457 q 265 -392 239 -310 q 29 -397 143 -378 q 56 -97 43 -303 q 67 355 69 108 q 36 719 65 601 q 267 719 175 696 q 251 558 249 621 q 338 679 282 639 q 451 716 393 719 q 560 676 508 713 q 638 575 613 639 z "},"q":{"ha":694,"x_min":21,"x_max":772,"o":"m 650 -139 q 683 -279 658 -231 q 772 -354 707 -328 q 650 -417 728 -411 q 528 -383 572 -422 q 451 -161 456 -328 q 449 83 449 -79 q 311 -17 406 -7 q 112 71 201 -26 q 21 340 22 168 q 113 630 21 533 q 331 726 206 726 q 457 688 413 726 q 507 582 501 650 q 372 640 438 651 q 303 602 332 635 q 262 520 275 569 q 243 428 249 471 q 238 342 238 386 q 239 264 236 300 q 251 181 242 228 q 284 108 260 135 q 346 82 308 81 q 419 151 393 83 q 449 315 446 218 q 447 375 447 336 l 447 376 l 447 375 q 438 514 444 474 q 647 514 558 501 q 639 200 636 431 q 650 -139 642 -31 z "},"r":{"ha":550,"x_min":-29,"x_max":533,"o":"m 443 717 q 511 664 489 706 q 530 576 533 622 q 494 488 526 529 q 410 438 463 447 q 428 491 424 458 q 420 554 432 524 q 381 592 408 585 q 297 552 326 607 q 264 401 267 497 q 265 367 264 390 q 294 15 271 110 q 299 1 297 8 q 67 3 163 19 q 81 285 78 129 q 78 521 85 442 q 47 647 69 611 q -29 704 24 683 q 65 740 8 735 q 178 707 122 744 q 253 588 233 669 q 328 696 279 660 q 443 717 378 732 z "},"s":{"ha":465,"x_min":32,"x_max":460,"o":"m 285 490 q 316 552 313 513 q 299 623 319 592 q 243 654 278 654 q 194 630 210 656 q 183 556 178 604 q 215 489 186 521 q 281 429 243 457 q 358 372 319 401 q 424 299 396 342 q 456 207 453 257 q 422 67 460 122 q 330 -7 383 11 q 215 -21 276 -25 q 149 -5 182 -18 q 85 37 117 8 q 42 112 53 65 q 43 228 32 158 q 116 140 64 176 q 219 107 168 104 q 285 163 269 110 q 275 230 296 199 q 217 288 254 261 q 140 343 179 315 q 70 412 100 371 q 39 501 40 453 q 87 640 36 585 q 225 707 138 696 q 381 692 321 721 q 443 588 442 663 q 417 507 443 539 q 355 473 390 475 q 285 490 319 471 z "},"t":{"ha":444,"x_min":-22,"x_max":500,"o":"m 369 736 q 293 740 340 740 q 293 208 285 399 q 341 99 297 140 q 443 67 385 58 q 360 -8 415 17 q 249 -26 304 -32 q 149 31 193 -19 q 103 169 106 82 q 103 326 101 233 q 108 546 104 418 q 114 732 113 674 q -22 715 -8 718 q 36 785 0 736 q 82 843 72 833 q 117 846 107 846 q 110 1019 117 969 q 331 1217 247 1121 q 297 863 310 1150 q 500 900 371 871 q 421 813 458 863 q 369 736 383 764 z "},"u":{"ha":738,"x_min":-51,"x_max":735,"o":"m 626 689 q 614 541 618 628 q 613 340 610 454 q 647 137 617 225 q 735 26 678 49 q 598 -31 672 -25 q 465 18 524 -37 q 431 114 442 44 q 290 -18 392 8 q 156 13 215 -36 q 86 140 97 61 q 78 254 79 199 q 81 379 78 310 q 85 478 85 449 q 56 628 86 572 q -51 710 25 685 q 39 740 -15 735 q 146 729 93 746 q 237 654 199 713 q 275 506 275 596 q 274 345 276 415 q 272 266 272 275 q 276 201 272 257 q 331 115 288 119 q 397 175 371 111 q 418 261 414 213 q 420 510 417 328 q 417 696 424 692 q 626 689 535 679 z "},"v":{"ha":739,"x_min":-75,"x_max":726,"o":"m 500 722 q 587 713 556 714 q 658 715 618 711 q 726 718 697 718 q 615 376 679 611 q 528 -4 550 142 q 250 -6 375 15 q 208 239 229 135 q 173 392 186 343 q 128 547 160 442 q 44 715 97 650 q -75 789 -10 781 q 21 829 -33 824 q 126 814 75 835 q 222 742 178 793 q 288 619 267 690 q 401 222 333 471 q 500 722 481 464 z "},"w":{"ha":926,"x_min":-56,"x_max":935,"o":"m 711 708 q 935 699 796 696 q 841 371 900 622 q 765 0 782 119 q 547 7 619 21 q 550 13 547 8 q 553 19 553 17 l 550 17 q 481 497 544 336 q 403 17 422 299 q 407 3 404 11 q 203 3 292 17 q 183 126 194 64 q 163 236 172 189 q 140 340 154 283 q 119 425 126 396 q 99 500 111 454 q 85 556 88 546 q 34 676 63 642 q -56 729 6 711 q 26 766 -21 757 q 122 763 74 775 q 209 705 169 750 q 264 588 249 660 q 331 299 285 489 q 394 697 372 483 q 581 689 435 683 q 607 519 586 663 q 649 292 628 376 q 711 708 726 585 z "},"x":{"ha":694,"x_min":-56,"x_max":708,"o":"m 515 374 q 587 230 540 324 q 662 80 633 136 q 708 -3 690 24 q 486 -3 583 14 q 385 238 464 65 q 384 243 385 239 q 383 250 383 247 l 379 250 q 376 238 379 246 q 333 151 364 213 q 284 51 303 90 q 261 -3 265 11 q 47 -3 169 13 q 251 364 93 65 q 88 663 138 597 q 23 728 54 707 q -56 753 -8 750 q 78 813 -12 810 q 225 744 168 817 q 378 475 260 694 l 379 467 l 383 465 q 385 475 385 469 q 438 597 407 522 q 475 696 468 671 q 682 689 521 683 q 640 621 664 667 q 576 496 615 575 q 515 374 538 417 z "},"y":{"ha":694,"x_min":0,"x_max":665,"o":"m 661 690 q 660 463 654 606 q 659 119 665 321 q 628 -185 653 -83 q 524 -358 603 -286 q 322 -435 446 -431 q 153 -356 219 -439 q 104 -164 86 -272 q 204 -256 149 -231 q 308 -265 260 -281 q 396 -203 357 -250 q 447 -86 435 -156 q 460 90 458 -18 q 338 -10 421 11 q 205 21 264 -28 q 135 149 146 69 q 127 263 128 207 q 130 390 126 319 q 133 489 133 461 q 106 640 136 582 q 0 721 75 697 q 90 753 35 747 q 199 741 144 758 q 294 665 254 724 q 333 514 333 606 q 333 385 333 442 q 331 306 332 328 q 330 260 329 283 q 335 208 331 236 q 383 122 344 126 q 442 181 417 119 q 464 294 461 226 q 447 683 464 588 q 661 690 556 674 z "},"z":{"ha":550,"x_min":-12,"x_max":546,"o":"m 276 158 q 524 163 407 146 q 517 -7 519 133 q 258 6 413 6 q 1 -3 103 7 q 133 246 47 74 q 279 551 219 418 q 136 550 165 547 q 3 725 -12 564 q 78 706 33 713 q 156 697 122 699 q 250 696 190 696 q 336 694 310 696 l 336 694 q 440 697 367 697 q 546 699 514 696 q 506 634 528 674 q 454 533 485 594 q 402 426 424 471 q 339 291 381 381 q 276 158 297 201 z "},"«":{"ha":897,"x_min":0,"x_max":814,"o":"m 0 539 q 213 688 108 590 q 368 883 318 786 q 401 800 390 846 q 412 702 413 754 q 379 602 411 650 q 285 526 347 554 q 411 390 385 488 q 368 168 438 293 q 0 539 274 338 m 376 539 q 591 688 486 590 q 744 883 696 786 q 778 800 767 846 q 788 702 789 754 q 756 602 788 650 q 661 526 724 554 q 788 390 763 488 q 744 168 814 293 q 376 539 647 342 z "},"»":{"ha":817,"x_min":17,"x_max":831,"o":"m 831 465 q 463 93 557 264 q 419 316 393 219 q 547 453 446 413 q 453 528 485 481 q 419 628 421 576 q 430 726 418 681 q 463 808 442 771 q 617 613 513 711 q 831 465 722 515 m 454 465 q 86 93 181 264 q 43 316 17 219 q 169 453 69 413 q 75 528 107 481 q 42 628 43 576 q 53 726 42 681 q 86 808 65 771 q 240 613 136 711 q 454 465 344 515 z "},"Ё":{"ha":564,"x_min":-40,"x_max":599,"o":"m 183 1365 q 262 1324 240 1365 q 282 1231 283 1283 q 256 1135 279 1176 q 185 1094 232 1094 q 109 1138 132 1094 q 89 1240 86 1182 q 113 1328 90 1293 q 183 1365 136 1364 m 183 1365 q 262 1324 240 1365 q 282 1231 283 1283 q 256 1135 279 1176 q 185 1094 232 1094 q 109 1138 132 1094 q 89 1240 86 1182 q 113 1328 90 1293 q 183 1365 136 1364 m 475 1357 q 553 1316 532 1357 q 574 1222 575 1275 q 547 1127 571 1168 q 476 1086 524 1086 q 401 1130 424 1086 q 381 1232 378 1174 q 405 1320 382 1285 q 475 1357 428 1356 q 553 1316 532 1357 q 574 1222 575 1275 q 547 1127 571 1168 q 476 1086 524 1086 q 401 1130 424 1086 q 381 1232 378 1174 q 405 1320 382 1285 q 475 1357 428 1356 m 597 215 q 592 134 599 171 q 571 74 586 97 q 541 33 556 50 q 500 7 526 15 q 458 -7 474 -1 q 412 -12 443 -12 q 369 -11 381 -11 q 329 -7 358 -11 l 300 -3 q 86 -10 228 8 q 101 389 100 113 q 83 767 103 665 q -40 944 43 929 q 54 976 -6 972 q 263 967 88 981 q 542 968 438 954 q 533 856 550 899 q 480 801 515 814 q 398 785 444 789 q 300 788 351 782 q 260 790 274 790 q 275 601 267 736 q 485 614 303 603 q 483 578 485 606 q 482 520 482 550 q 485 463 482 490 q 281 469 407 481 q 285 325 282 426 q 292 175 289 224 q 474 178 392 167 q 597 215 557 190 z "},"А":{"ha":846,"x_min":-167,"x_max":790,"o":"m 665 986 q 703 511 646 910 q 790 -12 761 113 q 658 -1 738 1 q 528 -14 579 -3 q 531 192 540 36 q 342 218 469 201 q 292 39 311 101 q 219 -64 272 -21 q 102 -123 167 -107 q -36 -118 38 -139 q -167 -36 -110 -97 q 16 22 -57 -37 q 119 164 89 82 q 144 238 136 211 q -121 235 -47 251 q -124 311 -126 282 q 176 344 -40 335 q 258 715 226 524 q 283 964 289 906 q 481 979 329 985 q 665 986 632 974 m 371 346 q 519 338 449 343 q 461 818 497 582 q 371 346 426 590 z "},"Б":{"ha":758,"x_min":18,"x_max":736,"o":"m 481 651 q 669 559 601 646 q 736 324 736 472 q 625 76 736 164 q 369 -12 514 -12 q 179 -6 285 -12 q 18 -1 74 1 q 47 517 49 139 q 19 972 46 896 q 112 978 44 972 q 265 994 179 985 q 385 1006 351 1003 q 510 983 454 1011 q 587 897 567 954 q 563 753 607 839 q 445 827 533 813 q 244 801 357 842 q 251 97 244 176 q 287 98 254 97 q 338 101 319 99 q 389 110 356 104 q 443 131 422 117 q 486 169 464 146 q 519 228 508 192 q 528 314 529 265 q 485 458 526 406 q 383 511 443 511 q 257 475 324 511 q 323 606 257 556 q 481 651 389 656 z "},"В":{"ha":767,"x_min":35,"x_max":806,"o":"m 533 551 q 728 430 650 538 q 800 192 806 322 q 738 -19 794 69 q 600 -145 682 -108 q 431 -185 518 -182 q 267 -142 343 -187 q 154 -18 190 -97 q 466 -32 353 -97 q 582 218 579 33 q 504 428 585 342 q 274 524 424 515 q 432 615 365 554 q 492 760 499 675 q 449 856 488 825 q 344 876 410 886 q 239 711 240 864 q 253 330 239 615 q 278 -3 268 44 q 156 8 226 10 q 35 -7 86 6 q 55 477 57 90 q 35 971 53 864 q 292 986 149 958 q 559 963 464 1017 q 664 785 654 908 q 634 645 668 718 q 533 551 600 572 z "},"Г":{"ha":593,"x_min":13,"x_max":643,"o":"m 572 754 q 524 822 569 800 q 419 842 478 844 q 307 828 361 839 q 347 -1 307 138 q 94 -3 201 17 q 110 118 104 47 q 119 249 117 189 q 120 394 121 308 q 118 521 119 479 q 114 638 117 563 q 111 717 111 714 q 88 863 108 804 q 13 951 68 921 q 440 1007 143 997 q 590 972 536 1011 q 638 872 643 932 q 572 754 633 811 z "},"Д":{"ha":839,"x_min":-29,"x_max":1014,"o":"m 933 119 q 1014 -185 889 -101 q 860 -228 943 -239 q 740 -149 776 -218 q 719 -7 713 -94 q 186 -8 474 4 q 203 -118 183 -74 q 272 -194 224 -162 q 117 -238 200 -249 q -1 -158 33 -228 q -26 -28 -29 -112 l -14 111 q 117 128 51 124 q 227 576 178 271 q 271 958 276 881 q 469 983 325 992 q 485 983 475 983 q 499 982 494 982 q 706 982 625 972 q 729 645 690 919 q 813 136 768 371 q 933 119 850 133 m 350 138 q 569 140 492 140 q 555 331 569 218 q 514 601 540 444 q 481 803 488 758 q 350 138 435 406 z "},"Е":{"ha":622,"x_min":-6,"x_max":633,"o":"m 632 215 q 627 134 633 171 q 606 74 621 97 q 576 33 590 50 q 535 7 561 15 q 493 -7 508 -1 q 447 -12 478 -12 q 404 -11 415 -11 q 364 -7 393 -11 l 335 -3 q 121 -10 263 8 q 136 389 135 113 q 118 767 138 665 q -6 944 78 929 q 89 976 29 972 q 297 967 122 981 q 576 968 472 954 q 567 856 585 899 q 515 801 550 814 q 433 785 479 789 q 335 788 386 782 q 294 790 308 790 q 310 601 301 736 q 519 614 338 603 q 518 578 519 606 q 517 520 517 550 q 519 463 517 490 q 315 469 442 481 q 320 325 317 426 q 326 175 324 224 q 509 178 426 167 q 632 215 592 190 z "},"Ж":{"ha":1217,"x_min":-29,"x_max":1243,"o":"m 554 997 q 565 483 571 899 q 538 -24 560 67 q 664 -8 586 -11 q 789 -19 742 -6 q 764 481 772 60 q 774 997 756 901 q 554 997 681 983 m 1225 1013 q 1021 1013 1135 996 q 956 709 1031 868 q 778 488 882 550 q 938 308 876 436 q 978 -4 1000 179 q 1063 7 1036 4 q 1140 6 1090 10 q 1243 -11 1189 3 q 1151 318 1226 174 q 981 497 1075 463 q 1100 613 1056 558 q 1181 769 1144 668 q 1225 1013 1217 871 m 131 811 q 81 967 99 936 q -29 1025 50 1014 q 46 1072 -6 1054 q 152 1087 97 1089 q 252 1044 207 1085 q 306 926 297 1003 q 385 669 319 792 q 551 488 451 547 q 391 308 453 436 q 351 -4 329 179 q 266 7 293 4 q 190 6 239 10 q 86 -11 140 3 q 178 318 103 174 q 349 497 254 463 q 203 649 253 576 q 131 811 153 721 z "},"З":{"ha":636,"x_min":-15,"x_max":644,"o":"m 403 563 q 583 466 522 550 q 635 274 644 382 q 515 45 621 125 q 254 -21 408 -35 q 53 82 122 -10 q 22 292 -15 174 q 257 133 125 135 q 369 180 318 131 q 428 301 419 229 q 383 469 440 396 q 204 547 326 542 q 327 631 271 569 q 394 765 383 693 q 376 856 403 824 q 304 892 350 888 q 194 846 228 897 q 186 721 161 794 q 83 786 113 722 q 81 908 53 850 q 332 1010 150 1033 q 499 938 426 999 q 571 781 571 878 q 521 640 571 697 q 403 563 471 582 z "},"И":{"ha":782,"x_min":-8,"x_max":858,"o":"m 726 214 q 763 89 739 125 q 858 42 786 53 q 785 -26 840 -3 q 666 -40 729 -49 q 568 13 603 -31 q 519 128 535 49 q 399 -3 471 32 q 242 -7 328 -37 q 185 28 210 6 q 146 75 161 50 q 121 142 131 100 q 107 217 111 185 q 102 308 103 250 q 103 402 101 365 q 106 509 104 439 q 110 618 108 579 q 92 888 114 811 q -8 1026 69 964 q 74 1040 32 1038 q 160 1033 117 1043 q 238 999 203 1022 q 296 932 272 976 q 322 826 319 888 q 318 665 324 792 q 313 420 313 538 q 329 254 314 303 q 362 199 342 218 q 403 181 382 179 q 446 197 425 182 q 482 244 467 213 q 501 318 497 276 q 503 553 499 403 q 506 811 508 704 q 486 972 504 918 q 742 971 588 958 q 720 625 729 897 q 726 214 711 353 z "},"Й":{"ha":753,"x_min":-43,"x_max":824,"o":"m 240 1228 q 421 1164 308 1157 q 614 1247 533 1171 q 476 1050 600 1106 q 192 1061 351 994 q 240 1228 232 1176 m 692 214 q 728 89 704 125 q 824 42 751 53 q 750 -26 806 -3 q 631 -40 694 -49 q 533 13 568 -31 q 485 128 500 49 q 365 -3 436 32 q 207 -7 293 -37 q 151 28 175 6 q 111 75 126 50 q 86 142 96 100 q 72 217 76 185 q 67 308 68 250 q 68 402 67 365 q 72 509 69 439 q 75 618 74 579 q 57 888 79 811 q -43 1026 35 964 q 40 1040 -3 1038 q 125 1033 82 1043 q 203 999 168 1022 q 261 932 238 976 q 288 826 285 888 q 283 665 289 792 q 278 420 278 538 q 294 254 279 303 q 327 199 307 218 q 369 181 347 179 q 411 197 390 182 q 447 244 432 213 q 467 318 463 276 q 469 553 464 403 q 472 811 474 704 q 451 972 469 918 q 707 971 553 958 q 685 625 694 897 q 692 214 676 353 z "},"К":{"ha":697,"x_min":35,"x_max":696,"o":"m 50 971 q 260 971 172 957 q 251 481 243 881 q 274 6 258 81 q 154 15 226 18 q 35 0 82 11 q 61 481 56 86 q 50 971 67 876 m 689 976 q 646 747 681 842 q 570 603 611 651 q 454 493 529 556 q 612 319 543 463 q 696 -4 681 175 q 572 14 622 14 q 446 3 521 14 q 410 309 467 179 q 264 485 354 439 q 433 692 363 544 q 494 976 503 839 q 689 976 603 960 z "},"Л":{"ha":842,"x_min":-89,"x_max":807,"o":"m 797 994 q 784 483 778 899 q 807 -11 790 68 q 683 0 760 3 q 558 -15 606 -3 q 581 358 575 57 q 581 856 588 658 q 421 860 504 867 q 422 836 421 844 q 324 44 436 314 q 256 -49 301 -8 q 153 -108 210 -90 q 31 -106 96 -126 q -89 -22 -35 -86 q 232 717 251 67 q 232 736 232 731 q 209 885 229 825 q 136 975 189 944 q 240 1013 165 1004 q 432 1001 314 1021 q 797 994 596 972 z "},"М":{"ha":1057,"x_min":-39,"x_max":1010,"o":"m 993 978 q 984 483 975 889 q 1010 4 993 76 q 884 14 963 17 q 760 -1 806 11 q 781 251 772 53 q 788 653 789 450 q 695 426 738 564 q 644 190 653 288 q 583 189 635 190 q 497 188 531 188 q 461 192 463 189 q 315 656 396 465 q 315 576 315 635 q 315 490 315 517 q 315 408 315 463 q 317 324 315 354 q 319 247 318 293 q 323 172 321 201 q 328 108 325 142 q 335 49 331 74 q 346 6 340 25 q 93 4 210 24 q 126 420 117 151 q 126 790 135 689 q 80 947 118 889 q -39 1029 42 1006 q 57 1078 -3 1064 q 178 1076 117 1092 q 276 1017 240 1061 q 369 875 324 958 q 433 747 414 792 q 501 578 453 703 q 557 435 550 454 q 648 671 578 483 q 775 978 718 858 l 775 978 l 775 978 q 993 978 904 967 z "},"Н":{"ha":808,"x_min":-28,"x_max":774,"o":"m 758 976 q 749 477 740 885 q 774 -7 757 69 q 648 3 726 6 q 522 -12 569 0 q 550 488 544 78 q 357 513 468 501 q 388 -4 357 101 q 138 -4 254 13 q 163 525 157 188 q -25 517 26 529 q -28 567 -28 539 q 164 599 25 582 q 161 788 167 726 q -17 1035 143 988 q 82 1083 21 1072 q 202 1074 143 1093 q 306 991 261 1056 q 353 826 350 926 q 356 614 356 765 q 550 614 478 619 q 538 976 550 900 q 758 976 667 963 z "},"О":{"ha":810,"x_min":33,"x_max":811,"o":"m 38 519 q 108 825 43 697 q 286 999 174 953 q 553 986 399 1046 q 447 953 494 978 q 370 899 400 929 q 318 823 340 868 q 284 742 296 778 q 265 656 272 707 q 257 578 258 604 q 254 511 256 551 q 286 242 247 356 q 411 124 325 129 q 596 496 588 108 q 549 753 599 647 q 400 890 499 860 q 490 912 443 910 q 584 899 538 914 q 672 848 631 883 q 745 761 714 813 q 794 634 776 710 q 808 469 811 558 q 690 93 800 218 q 403 -33 579 -32 q 194 49 281 -33 q 70 253 107 131 q 38 519 33 376 z "},"П":{"ha":768,"x_min":-39,"x_max":728,"o":"m 718 992 q 705 488 699 900 q 728 0 711 75 q 603 10 679 13 q 479 -4 526 7 q 504 346 497 64 q 504 836 511 628 q 313 840 414 850 q 314 818 313 826 q 316 549 317 746 q 322 210 315 351 q 346 4 328 69 q 101 3 213 22 q 123 413 115 160 q 122 749 131 667 q 79 890 115 843 q -39 963 43 938 q 58 1015 -7 1006 q 203 1003 124 1025 q 718 992 358 963 z "},"Р":{"ha":665,"x_min":47,"x_max":681,"o":"m 75 928 q 401 993 196 993 q 599 911 517 993 q 681 678 681 829 q 630 472 681 560 q 492 360 579 383 q 290 408 406 336 q 382 431 344 410 q 440 490 419 453 q 469 567 460 528 q 482 658 478 607 q 460 848 493 800 q 364 892 426 896 q 258 725 264 888 q 289 6 244 293 q 47 -7 99 6 q 78 356 69 149 q 85 716 88 564 q 75 928 83 868 z "},"С":{"ha":651,"x_min":10,"x_max":756,"o":"m 475 515 q 502 630 507 575 q 458 720 497 685 q 367 744 418 756 q 267 657 303 731 q 227 489 231 583 q 232 294 224 394 q 245 221 236 257 q 272 140 254 185 q 317 60 290 96 q 385 -10 344 25 q 478 -61 425 -44 q 600 -85 531 -78 q 756 -74 669 -93 q 615 -168 693 -135 q 458 -205 536 -201 q 303 -179 379 -208 q 167 -92 226 -150 q 67 62 107 -35 q 22 282 28 158 q 104 669 10 515 q 343 860 199 824 q 515 863 425 886 q 633 769 606 840 q 617 615 663 696 q 475 515 571 533 z "},"Т":{"ha":681,"x_min":-37,"x_max":693,"o":"m 693 975 q 686 756 675 904 q 465 776 626 779 q 471 319 461 593 q 492 -6 481 46 q 367 3 444 6 q 243 -10 289 1 q 266 314 258 54 q 268 772 274 574 q 176 775 204 772 q -12 1022 -37 790 q 178 969 44 976 q 476 970 311 961 q 693 975 640 979 z "},"У":{"ha":688,"x_min":-51,"x_max":674,"o":"m 669 985 q 668 779 663 908 q 668 467 674 650 q 638 192 663 283 q 536 33 613 99 q 338 -36 460 -32 q 173 35 238 -42 q 125 210 108 111 q 223 126 168 149 q 326 117 278 103 q 411 174 374 131 q 461 281 449 218 q 472 425 468 329 q 250 344 390 314 q 197 364 221 351 q 157 390 174 376 q 127 426 140 403 q 106 467 114 450 q 92 517 97 485 q 85 566 88 549 q 82 621 82 583 q 82 674 82 658 q 84 729 82 689 q 86 781 86 769 q 58 913 89 858 q -51 1004 26 968 q 56 1019 0 1018 q 163 1006 111 1019 q 249 951 215 992 q 283 847 283 910 q 278 753 283 815 q 275 644 274 692 q 289 550 276 597 q 358 472 311 471 q 442 549 407 474 q 474 707 474 615 l 475 708 q 461 981 472 914 q 669 985 551 972 z "},"Ф":{"ha":1085,"x_min":43,"x_max":1075,"o":"m 779 951 q 989 857 903 960 q 1075 583 1075 754 q 1017 360 1075 461 q 869 227 960 260 q 668 263 779 194 q 781 314 735 264 q 846 427 828 364 q 865 556 864 490 q 856 709 868 644 q 823 805 844 774 q 778 849 801 836 q 732 857 756 861 q 643 733 654 844 q 642 719 643 724 q 650 285 642 515 q 668 8 658 54 q 551 17 622 21 q 435 3 479 14 q 456 294 449 64 q 460 736 463 524 q 376 860 447 860 q 283 783 317 860 q 251 576 250 707 q 260 475 251 524 q 287 377 268 426 q 342 297 306 328 q 431 265 379 267 q 233 231 319 197 q 95 363 147 264 q 43 583 43 463 q 122 859 43 767 q 325 951 201 951 q 456 907 411 951 q 450 986 454 931 q 654 986 568 972 q 646 901 649 964 q 779 951 686 944 z "},"Х":{"ha":789,"x_min":-53,"x_max":796,"o":"m 796 972 q 740 878 774 943 q 654 711 706 814 q 558 528 603 608 q 644 306 599 432 q 722 101 690 181 q 779 -18 753 22 q 497 -18 621 4 q 474 130 496 -15 q 422 350 453 275 q 380 220 400 296 q 344 78 360 144 q 325 -1 329 13 q 44 -1 204 19 q 104 112 68 35 q 195 312 140 189 q 288 513 250 435 q 136 824 181 764 q 51 913 92 883 q -53 946 10 942 q 51 1017 -18 994 q 196 1021 119 1040 q 317 936 272 1001 q 344 881 329 917 q 368 815 358 844 q 396 727 378 786 q 422 643 414 668 q 472 774 449 703 q 515 908 496 844 q 538 982 535 972 q 796 972 643 953 z "},"Ц":{"ha":756,"x_min":-58,"x_max":829,"o":"m 797 67 q 825 -42 821 21 q 808 -163 829 -106 q 740 -240 786 -221 q 531 -270 675 -268 q 314 -304 388 -272 q 327 -209 313 -250 q 378 -143 342 -168 q 438 -103 415 -118 q 519 -81 460 -89 q 590 -72 578 -74 q 660 -69 601 -71 q 683 -68 676 -68 q 740 -47 719 -67 q 751 0 761 -28 q 627 -28 701 -33 q 513 24 553 -24 q 464 140 479 61 q 346 10 417 44 q 189 7 275 -25 q 133 40 157 18 q 94 87 110 63 q 69 153 79 111 q 56 227 60 194 q 51 317 51 260 q 51 410 50 374 q 55 517 53 447 q 58 625 57 586 q 40 892 63 817 q -58 1028 18 967 q 44 1042 -11 1046 q 149 1022 100 1039 q 232 956 197 1006 q 269 832 267 906 q 265 669 271 797 q 260 423 260 540 q 276 258 261 306 q 358 176 306 168 q 431 257 404 185 q 446 326 442 289 q 448 560 443 410 q 451 816 453 711 q 432 975 450 921 q 562 970 479 969 q 685 975 644 971 q 664 632 672 903 q 669 224 656 361 q 706 128 678 168 q 797 67 733 89 z "},"Ч":{"ha":713,"x_min":-57,"x_max":678,"o":"m 663 985 q 653 479 644 892 q 678 -11 661 67 q 553 -1 631 1 q 428 -17 475 -4 q 454 399 447 65 q 239 317 371 285 q 183 338 208 324 q 141 374 158 351 q 111 415 124 396 q 92 468 99 433 q 81 524 85 503 q 76 588 76 544 q 74 648 75 631 q 76 713 74 665 q 78 772 78 760 q 50 910 81 853 q -57 1004 19 967 q 48 1020 -7 1019 q 153 1006 103 1021 q 237 949 204 992 q 269 842 269 907 q 265 745 269 813 q 261 628 260 678 q 275 531 263 579 q 344 450 296 447 q 425 529 390 453 q 456 688 453 596 q 444 985 453 929 q 663 985 569 971 z "},"Ш":{"ha":1132,"x_min":-43,"x_max":1201,"o":"m 1071 219 q 1107 97 1083 132 q 1201 50 1131 61 q 1071 -31 1172 -18 q 913 19 969 -43 q 865 132 883 57 q 599 3 774 -61 q 482 142 514 33 q 363 7 435 43 q 204 3 292 -29 q 149 36 172 14 q 110 83 125 58 q 85 149 94 107 q 72 222 76 190 q 66 313 67 254 q 67 407 65 371 q 70 513 68 443 q 74 621 72 583 q 56 888 78 813 q -43 1024 35 963 q 60 1038 4 1042 q 165 1018 115 1035 q 248 951 214 1001 q 285 828 282 901 q 280 654 286 792 q 274 390 274 517 q 289 217 274 264 q 371 147 318 128 q 447 253 419 165 q 461 322 458 286 q 464 476 460 372 q 468 621 468 581 q 465 807 471 736 q 447 926 460 878 q 435 979 435 975 q 682 975 536 969 q 669 758 675 911 q 665 435 663 604 q 683 217 667 265 q 761 147 713 129 q 833 264 810 165 q 846 347 843 303 q 849 572 844 422 q 852 820 854 722 q 833 971 850 918 q 962 966 879 965 q 1086 971 1044 967 q 1065 628 1074 897 q 1071 219 1056 358 z "},"Щ":{"ha":1182,"x_min":-29,"x_max":1265,"o":"m 1215 44 q 1247 -125 1265 -32 q 1156 -249 1228 -218 q 946 -278 1089 -276 q 729 -312 803 -281 q 735 -248 728 -278 q 754 -196 743 -218 q 786 -156 765 -174 q 824 -126 807 -137 q 871 -106 842 -115 q 919 -92 900 -97 q 969 -84 938 -87 q 1017 -80 1001 -81 q 1062 -78 1032 -79 q 1099 -76 1092 -76 q 1155 -56 1135 -75 q 1165 -8 1175 -36 q 1041 -37 1115 -42 q 926 15 967 -32 q 879 128 894 53 q 613 -1 788 -65 q 496 138 525 29 q 377 3 449 39 q 218 -1 306 -33 q 163 32 186 10 q 124 78 139 54 q 99 144 108 103 q 85 219 89 186 q 80 308 81 251 q 81 402 79 365 q 84 508 82 439 q 88 617 86 578 q 69 883 92 808 q -29 1019 47 958 q 74 1034 18 1038 q 178 1014 129 1031 q 261 947 226 997 q 299 824 296 897 q 294 642 300 788 q 286 395 288 496 q 301 213 285 294 q 385 144 332 122 q 463 251 435 164 q 475 318 472 285 q 482 617 475 338 q 479 803 485 732 q 461 923 474 874 q 449 975 449 972 q 696 971 550 965 q 683 753 689 907 q 678 431 676 600 q 697 213 681 261 q 775 143 726 125 q 847 260 824 161 q 860 343 857 299 q 863 568 858 418 q 866 816 868 718 q 847 967 864 914 q 976 962 893 961 q 1100 967 1058 963 q 1078 624 1088 893 q 1085 215 1069 354 q 1121 92 1097 128 q 1215 46 1144 57 l 1215 44 z "},"Ъ":{"ha":796,"x_min":-56,"x_max":817,"o":"m 574 640 q 756 558 694 635 q 804 328 817 481 q 696 84 792 169 q 467 -1 600 -1 q 283 5 385 -1 q 126 8 181 11 q 151 681 176 292 q 146 783 151 689 q 3 833 63 788 q -54 982 -56 878 q 177 965 42 960 q 357 965 313 971 q 345 483 347 779 q 350 111 343 186 q 378 112 356 111 q 415 113 400 113 q 453 119 429 114 q 494 131 478 124 q 531 154 511 139 q 565 190 551 169 q 588 244 578 211 q 601 318 599 276 q 577 459 608 408 q 493 509 546 510 q 376 472 440 508 q 432 599 376 553 q 574 640 488 644 z "},"Ы":{"ha":1103,"x_min":0,"x_max":1068,"o":"m 810 986 q 849 484 854 864 q 817 -7 844 104 q 942 8 865 6 q 1068 -3 1019 11 q 1044 480 1050 86 q 1068 981 1038 874 q 944 972 1014 972 q 810 986 874 972 m 561 636 q 740 549 678 631 q 788 324 801 467 q 679 83 772 167 q 454 0 586 0 q 273 6 374 0 q 118 10 172 13 q 143 675 165 282 q 0 986 128 926 q 106 997 49 1001 q 212 975 163 992 q 296 908 261 958 q 335 781 331 857 q 338 401 342 661 q 339 111 335 142 q 370 112 343 111 q 412 115 397 113 q 453 122 426 117 q 498 142 481 128 q 535 177 515 156 q 569 233 556 199 q 588 314 582 268 q 566 456 599 404 q 478 508 533 508 q 358 474 424 508 q 416 596 358 551 q 561 636 474 640 z "},"Ь":{"ha":810,"x_min":-43,"x_max":840,"o":"m 594 639 q 779 555 718 633 q 828 322 840 476 q 717 75 814 161 q 485 -11 621 -11 q 301 -5 404 -11 q 142 -1 197 1 q 167 679 192 286 q 161 785 165 692 q 17 834 76 789 q -42 985 -43 879 q 193 968 68 963 q 375 967 318 974 q 361 478 364 781 q 367 103 358 176 q 399 103 371 103 q 444 106 428 104 q 489 115 460 108 q 537 135 518 121 q 576 170 556 149 q 608 228 596 192 q 622 313 619 265 q 597 456 629 404 q 513 506 565 507 q 394 469 460 506 q 450 597 394 550 q 594 639 506 643 z "},"Э":{"ha":796,"x_min":3,"x_max":811,"o":"m 506 993 q 738 794 664 940 q 779 410 811 647 q 709 181 761 278 q 587 35 657 83 q 433 -29 517 -14 q 269 -23 349 -44 q 119 53 190 -1 q 3 188 47 107 q 277 138 157 136 q 478 206 397 139 q 588 400 560 274 q 453 440 539 432 q 318 433 368 449 q 317 576 322 531 q 604 554 496 585 q 432 846 604 790 q 276 833 358 871 q 161 724 193 796 q 151 841 140 786 q 199 930 163 896 q 285 987 235 964 q 393 1009 336 1010 q 506 993 450 1008 z "},"Ю":{"ha":1181,"x_min":35,"x_max":1146,"o":"m 624 989 q 909 992 793 1046 q 1085 806 1025 938 q 1146 492 1146 675 q 1099 224 1146 349 q 965 22 1053 100 q 767 -57 876 -57 q 489 60 603 -57 q 356 394 375 176 q 264 408 315 406 q 286 -11 271 64 q 161 0 239 3 q 35 -15 83 -3 q 63 474 57 72 q 51 972 68 876 q 271 972 178 958 q 260 544 254 900 q 356 539 311 544 q 397 701 364 628 q 476 818 429 774 q 579 888 524 863 q 692 911 635 913 q 797 886 749 910 q 642 751 696 858 q 586 489 588 643 q 763 69 581 63 q 843 111 808 72 q 898 213 878 150 q 928 347 918 275 q 936 494 938 419 q 933 576 936 538 q 919 672 929 615 q 887 775 908 728 q 833 868 865 822 q 747 946 800 914 q 624 989 693 978 z "},"Я":{"ha":708,"x_min":-57,"x_max":700,"o":"m 668 957 q 666 535 656 888 q 700 -7 676 183 q 461 -11 603 1 q 473 382 467 78 q 478 751 479 686 q 449 842 476 813 q 382 871 422 871 q 292 834 322 871 q 263 708 261 797 q 298 547 264 610 q 417 458 332 483 q 293 6 375 154 q 206 -75 261 -53 q 99 -87 151 -97 q 3 -46 47 -76 q -57 26 -42 -15 q 58 63 4 25 q 149 160 113 100 q 210 287 186 221 q 246 418 235 353 q 110 544 156 463 q 71 722 64 626 q 124 878 76 817 q 234 962 172 939 q 369 985 296 985 q 668 957 524 985 z "},"а":{"ha":665,"x_min":18,"x_max":747,"o":"m 631 515 q 622 431 625 471 q 614 320 618 392 q 615 190 610 249 q 633 74 621 132 q 674 -22 644 15 q 747 -67 704 -60 q 674 -110 718 -93 q 585 -128 631 -126 q 498 -101 539 -129 q 440 -17 457 -74 q 425 81 429 18 q 253 -17 371 -17 q 181 -1 217 -17 q 106 50 144 14 q 42 160 67 86 q 18 336 18 235 q 42 503 18 431 q 108 615 67 575 q 192 676 149 656 q 281 701 235 696 q 420 659 364 711 q 464 539 476 607 q 422 567 450 557 q 361 574 394 578 q 297 548 328 569 q 243 472 265 526 q 219 336 221 417 q 226 238 218 286 q 261 152 235 190 q 329 117 288 114 q 387 157 363 118 q 419 257 411 196 q 415 515 422 454 q 631 515 540 504 z "},"б":{"ha":708,"x_min":0,"x_max":685,"o":"m 635 1169 q 681 1027 676 1092 q 658 922 685 963 q 599 856 631 881 q 525 814 567 831 q 452 789 507 807 q 369 758 397 771 q 305 712 342 746 q 249 628 268 678 q 226 265 194 485 q 266 156 233 206 q 364 108 299 107 q 456 172 428 111 q 483 350 483 233 q 464 458 483 413 q 415 524 444 504 q 350 542 386 544 q 282 511 314 539 q 332 655 282 597 q 464 704 382 713 q 631 598 576 693 q 685 351 685 503 q 656 189 685 260 q 578 78 626 118 q 476 17 531 38 q 363 -7 421 -4 q 156 64 251 -11 q 35 303 61 139 q 89 726 0 535 q 153 825 115 785 q 231 887 190 865 q 316 924 272 908 q 404 958 360 940 q 490 998 449 975 q 569 1064 531 1021 q 635 1169 607 1107 z "},"в":{"ha":740,"x_min":21,"x_max":718,"o":"m 247 631 q 375 696 306 681 q 506 690 444 711 q 617 622 568 668 q 692 499 667 576 q 708 329 718 421 q 590 61 690 150 q 363 -18 489 -28 q 172 51 247 -10 q 59 255 97 111 q 39 622 21 399 q 74 834 49 738 q 143 1011 99 931 q 259 1137 188 1092 q 424 1181 331 1182 q 578 1122 510 1181 q 643 950 647 1064 q 603 818 640 876 q 492 735 565 760 q 313 763 419 711 q 434 826 397 783 q 474 918 471 868 q 407 1043 482 1043 q 339 1008 368 1043 q 292 910 310 974 q 265 781 275 846 q 247 631 254 715 m 529 363 q 508 481 532 429 q 447 552 485 532 q 369 572 410 572 q 292 535 328 571 q 239 439 256 500 q 270 200 239 276 q 367 118 301 124 q 478 182 431 111 q 529 363 526 253 z "},"г":{"ha":478,"x_min":-7,"x_max":490,"o":"m 431 494 q 396 544 426 526 q 328 562 365 563 q 257 556 292 561 q 294 0 257 129 q 63 -1 169 17 q 86 436 90 275 q 65 574 83 518 q -7 658 46 629 q 286 711 101 693 q 435 690 379 721 q 489 603 490 658 q 431 494 488 549 z "},"д":{"ha":694,"x_min":32,"x_max":644,"o":"m 644 506 q 641 326 638 431 q 636 66 644 222 q 603 -187 628 -90 q 504 -350 579 -282 q 310 -422 429 -418 q 147 -347 211 -426 q 101 -167 83 -268 q 197 -254 143 -231 q 298 -263 251 -278 q 382 -203 344 -249 q 431 -93 419 -158 q 444 81 440 -40 q 310 -18 403 -11 q 122 61 203 -29 q 36 321 40 151 q 121 603 32 500 q 328 706 210 706 q 451 668 408 706 q 499 564 494 631 q 368 622 435 633 q 301 585 329 617 q 260 505 274 553 q 242 415 247 457 q 236 331 236 374 q 237 258 235 288 q 247 188 239 229 q 278 124 256 146 q 338 103 301 101 q 421 181 394 106 q 442 363 447 256 q 429 500 438 457 q 644 506 531 490 m 442 363 l 442 364 l 442 363 z "},"е":{"ha":571,"x_min":11,"x_max":571,"o":"m 251 253 q 347 340 307 278 q 394 463 386 401 q 397 542 399 501 q 373 613 396 582 q 311 642 350 643 q 203 354 197 639 q 240 212 204 271 q 331 129 276 153 q 449 107 385 106 q 571 136 513 108 q 474 24 532 64 q 356 -23 417 -17 q 232 -7 294 -29 q 121 62 169 15 q 42 181 72 108 q 11 342 11 254 q 40 522 11 444 q 115 640 68 599 q 212 699 163 681 q 313 718 261 718 q 488 654 424 718 q 543 447 551 590 q 515 348 539 392 q 456 282 490 304 q 383 248 422 260 q 310 238 344 236 q 251 253 275 240 z "},"ж":{"ha":1010,"x_min":8,"x_max":1004,"o":"m 599 719 q 593 326 588 542 q 617 4 599 110 q 401 -1 518 15 q 415 408 417 171 q 401 711 413 646 q 599 719 517 694 m 32 711 q 244 706 117 696 q 282 500 242 594 q 401 374 322 406 q 249 -1 249 278 q 8 -1 143 29 q 95 244 31 153 q 242 369 160 335 q 110 503 178 413 q 32 711 43 593 m 976 711 q 904 517 971 613 q 772 378 838 422 q 918 252 854 343 q 1004 7 982 161 q 765 7 856 26 q 611 382 764 288 q 724 503 690 400 q 753 711 758 606 q 976 711 897 696 z "},"з":{"ha":585,"x_min":-14,"x_max":596,"o":"m 372 233 q 535 97 474 197 q 585 -135 596 -3 q 484 -342 575 -251 q 269 -439 393 -433 q 166 -418 218 -440 q 69 -353 114 -396 q 6 -233 25 -310 q 4 -62 -14 -157 q 96 -222 33 -171 q 235 -267 158 -272 q 355 -208 303 -261 q 417 -75 407 -156 q 362 127 431 40 q 178 229 293 214 q 322 308 263 249 q 392 446 381 368 q 376 549 401 508 q 301 596 351 589 q 188 542 226 608 q 175 397 149 476 q 60 463 97 399 q 56 593 22 528 q 325 706 126 731 q 492 627 419 693 q 563 461 564 561 q 503 313 561 374 q 372 233 446 251 z "},"и":{"ha":724,"x_min":-19,"x_max":742,"o":"m 638 689 q 625 547 629 632 q 624 353 621 463 q 658 157 628 243 q 742 50 688 71 q 609 -8 683 -1 q 481 39 535 -14 q 447 133 458 65 q 314 7 407 29 q 183 35 240 -11 q 115 158 125 82 q 106 269 107 215 q 110 391 106 324 q 114 486 114 458 q 85 632 115 576 q -19 711 54 688 q 70 741 17 736 q 177 729 124 746 q 269 656 231 713 q 308 511 308 599 q 306 364 308 424 q 302 301 303 304 q 307 246 301 297 q 358 154 318 163 q 421 208 396 146 q 436 278 432 238 q 438 517 435 344 q 435 694 440 690 q 638 689 554 681 z "},"й":{"ha":710,"x_min":-42,"x_max":728,"o":"m 238 914 q 414 859 308 846 q 600 950 519 872 q 481 751 596 815 q 213 751 365 686 q 238 914 240 828 m 622 688 q 610 544 614 629 q 609 347 606 458 q 642 149 613 236 q 728 40 672 63 q 593 -17 668 -11 q 464 29 518 -24 q 431 125 442 56 q 294 -3 388 19 q 163 26 221 -21 q 94 150 104 74 q 85 262 86 207 q 89 385 85 317 q 93 482 93 454 q 64 630 94 574 q -42 710 33 686 q 49 740 -6 735 q 157 728 103 744 q 250 653 211 711 q 289 507 289 596 q 286 358 289 418 q 283 295 283 299 q 288 239 282 292 q 342 146 300 154 q 403 201 379 139 q 418 271 414 231 q 420 513 417 336 q 417 693 424 690 q 622 688 539 679 z "},"к":{"ha":665,"x_min":36,"x_max":785,"o":"m 250 697 q 227 298 228 513 q 250 1 226 83 q 36 -3 144 14 q 42 697 69 517 q 250 697 140 679 m 592 697 q 535 499 586 593 q 426 364 483 404 q 537 128 438 233 q 785 -40 636 24 q 515 -42 632 -94 q 330 133 399 10 q 261 404 261 256 q 351 467 317 417 q 394 576 385 518 q 401 697 404 633 q 592 697 525 685 z "},"л":{"ha":633,"x_min":-99,"x_max":599,"o":"m 589 688 q 577 334 571 594 q 599 -4 583 74 q 485 6 553 8 q 371 -8 417 3 q 393 567 407 140 q 269 569 325 576 l 269 549 q 268 199 276 363 q 238 -33 260 35 q 190 -103 224 -74 q 113 -143 157 -132 q 12 -139 68 -154 q -99 -81 -44 -124 q -22 -48 -56 -72 q 33 3 13 -24 q 69 76 54 31 q 91 153 83 122 q 101 240 99 185 q 104 317 104 296 q 102 390 104 339 q 100 443 100 442 q 80 583 99 526 q 10 669 61 640 q 281 694 72 732 q 436 677 372 678 q 589 688 500 676 z "},"м":{"ha":853,"x_min":-42,"x_max":826,"o":"m 804 692 q 800 341 789 603 q 826 3 811 79 q 721 12 785 14 q 615 -1 657 10 q 629 122 626 47 q 631 393 632 196 q 531 0 556 254 q 487 2 519 0 q 431 4 454 4 q 371 1 408 4 q 256 417 351 176 q 256 225 256 275 q 263 111 257 175 q 285 -4 269 47 q 75 -6 171 11 q 102 281 94 136 q 103 510 110 426 q 62 653 94 599 q -42 729 29 707 q 86 776 3 778 q 225 717 169 774 q 297 613 263 678 q 352 499 332 549 q 406 352 372 449 q 456 215 440 256 q 540 475 481 315 q 617 696 600 635 q 804 692 744 682 z "},"н":{"ha":635,"x_min":58,"x_max":594,"o":"m 579 700 q 572 343 564 617 q 594 0 581 69 q 489 9 556 11 q 383 -4 422 7 q 406 342 400 61 q 244 339 329 346 q 271 4 244 93 q 61 3 149 18 q 74 377 74 149 q 58 700 75 606 q 253 700 131 685 q 244 426 239 617 q 407 428 329 433 q 394 700 407 613 q 579 700 500 686 z "},"о":{"ha":650,"x_min":32,"x_max":614,"o":"m 472 599 q 278 556 353 642 q 210 318 203 471 q 350 100 221 100 q 434 164 404 99 q 465 319 464 229 q 350 547 465 522 q 522 532 439 593 q 611 356 604 471 q 608 257 614 307 q 581 155 601 207 q 528 63 561 103 q 442 -2 496 24 q 318 -28 388 -28 q 122 63 211 -28 q 32 321 32 154 q 108 594 32 493 q 293 708 185 696 q 404 688 356 715 q 472 599 453 660 z "},"п":{"ha":624,"x_min":-15,"x_max":606,"o":"m 596 693 q 583 338 578 601 q 606 -4 589 74 q 491 6 558 8 q 378 -8 424 4 q 399 590 415 157 q 244 593 324 603 q 245 582 244 589 q 246 572 246 575 q 249 363 249 503 q 254 145 249 224 q 279 0 260 67 q 54 -1 157 18 q 75 446 81 308 q 54 589 72 532 q -15 675 36 646 q 256 699 43 736 q 596 693 414 672 z "},"р":{"ha":710,"x_min":26,"x_max":683,"o":"m 644 575 q 679 328 683 481 q 631 93 675 175 q 534 0 594 28 q 419 -20 474 -28 q 323 6 365 -12 q 272 46 281 25 q 394 103 346 38 q 457 256 443 168 q 457 424 471 344 q 392 533 443 507 q 299 489 339 560 q 256 322 267 432 q 272 -392 249 -318 q 26 -397 144 -378 q 53 -97 40 -303 q 65 355 67 108 q 33 719 63 601 q 274 719 178 696 q 258 558 256 621 q 344 679 289 639 q 458 716 400 719 q 567 676 515 713 q 644 575 619 639 z "},"с":{"ha":558,"x_min":18,"x_max":542,"o":"m 501 619 q 494 524 524 567 q 417 481 464 481 q 388 568 431 543 q 292 571 346 593 q 203 333 189 529 q 267 157 211 213 q 397 113 324 101 q 542 183 471 124 q 394 -12 513 32 q 179 13 289 -51 q 29 224 61 81 q 21 325 19 272 q 98 588 26 494 q 281 703 169 682 q 418 696 357 718 q 501 619 479 674 z "},"т":{"ha":622,"x_min":-37,"x_max":597,"o":"m 597 696 q 593 500 582 635 q 403 522 529 526 q 409 212 400 388 q 431 -15 418 36 q 308 -2 389 -3 q 186 -12 228 -1 q 208 208 201 47 q 213 518 215 369 q 196 519 207 519 q 179 521 185 519 q -11 774 -37 539 q 115 709 31 729 q 276 690 199 689 q 455 694 353 690 q 597 696 557 699 z "},"у":{"ha":654,"x_min":-49,"x_max":622,"o":"m 618 700 q 617 470 611 614 q 616 123 622 326 q 585 -183 610 -81 q 480 -358 558 -285 q 276 -435 401 -431 q 105 -354 172 -439 q 57 -161 38 -269 q 191 -267 115 -251 q 326 -229 267 -282 q 403 -83 385 -176 q 415 94 414 -15 q 292 -6 376 15 q 158 24 217 -25 q 88 153 99 74 q 80 269 81 213 q 83 397 79 325 q 86 496 86 468 q 58 649 89 590 q -49 731 28 707 q 8 756 -25 747 q 79 765 42 765 q 153 749 117 764 q 220 708 190 735 q 269 633 250 681 q 288 522 288 585 q 287 392 288 450 q 285 311 286 333 q 284 265 283 289 q 289 214 285 242 q 339 126 300 129 q 397 186 374 125 q 419 300 417 233 q 403 693 419 594 q 618 700 511 683 z "},"ф":{"ha":1071,"x_min":4,"x_max":1056,"o":"m 999 583 q 1053 330 1056 465 q 1003 106 1051 194 q 906 13 967 40 q 792 -8 846 -15 q 694 19 738 0 q 643 60 651 39 q 767 116 718 51 q 828 269 815 181 q 828 436 842 357 q 767 538 815 507 q 674 538 718 568 q 629 425 629 507 q 643 -379 619 -303 q 399 -385 524 -364 q 422 -15 410 -307 q 431 408 435 276 q 383 532 428 493 q 290 549 338 571 q 229 457 242 526 q 225 329 217 400 q 252 196 233 258 q 314 93 271 133 q 413 60 357 53 q 362 19 404 39 q 265 -8 319 0 q 150 13 210 -15 q 54 106 90 40 q 6 326 7 190 q 53 560 4 463 q 174 674 94 644 q 324 687 254 704 q 425 629 393 669 q 421 693 425 678 q 377 831 414 765 q 282 904 340 897 q 379 941 322 933 q 490 934 436 949 q 585 869 544 919 q 629 742 625 819 q 631 625 631 707 q 740 708 669 689 q 884 693 811 726 q 999 583 957 660 z "},"х":{"ha":708,"x_min":-50,"x_max":714,"o":"m 521 374 q 592 230 546 324 q 667 80 639 136 q 714 -3 696 24 q 492 -3 589 14 q 390 238 469 65 q 390 243 390 239 q 389 250 389 247 l 385 250 q 382 238 385 246 q 339 151 369 213 q 290 51 308 90 q 267 -3 271 11 q 53 -3 175 13 q 257 364 99 65 q 93 663 143 597 q 28 728 60 707 q -50 753 -3 750 q 83 813 -7 810 q 231 744 174 817 q 383 475 265 694 l 385 467 l 389 465 q 390 475 390 469 q 443 597 413 522 q 481 696 474 671 q 688 689 526 683 q 645 621 669 667 q 582 496 621 575 q 521 374 543 417 z "},"ц":{"ha":738,"x_min":-43,"x_max":781,"o":"m 728 46 q 760 -135 781 -36 q 664 -265 740 -233 q 474 -289 594 -294 q 278 -317 354 -283 q 286 -234 276 -271 q 309 -174 296 -197 q 349 -133 322 -150 q 394 -106 375 -115 q 450 -92 414 -97 q 503 -85 486 -86 q 558 -84 519 -85 q 606 -83 597 -83 q 663 -55 644 -82 q 665 7 682 -28 q 558 -10 615 -17 q 464 36 500 -4 q 429 131 440 60 q 293 1 392 26 q 161 32 219 -15 q 92 156 103 79 q 83 269 83 214 q 86 392 82 324 q 90 489 90 461 q 62 637 92 581 q -43 717 32 693 q 47 747 -8 742 q 156 735 101 751 q 249 660 210 718 q 290 514 289 603 q 288 357 290 426 q 285 279 286 288 q 290 215 285 271 q 340 132 300 133 q 399 190 374 131 q 418 276 413 226 q 419 519 415 346 q 415 701 422 693 q 622 696 540 688 q 610 551 614 636 q 608 353 606 465 q 642 153 611 240 q 728 46 672 67 z "},"ч":{"ha":607,"x_min":-50,"x_max":625,"o":"m 575 701 q 552 554 563 649 q 538 348 542 460 q 556 149 535 236 q 625 46 578 61 q 530 -22 588 -11 q 428 0 472 -33 q 378 94 383 33 q 374 290 371 167 q 186 228 304 201 q 89 320 117 246 q 64 540 61 394 q -50 785 65 715 q 42 808 -7 806 q 134 794 90 810 q 207 733 178 779 q 236 618 236 688 q 242 421 236 464 q 294 339 254 339 q 361 410 332 340 q 379 474 372 438 q 375 701 386 632 q 575 701 497 688 z "},"ш":{"ha":1013,"x_min":-43,"x_max":1029,"o":"m 928 688 q 915 543 919 631 q 915 344 911 456 q 947 144 918 232 q 1029 36 976 57 q 900 -22 972 -15 q 772 25 828 -29 q 739 126 750 53 q 606 -8 703 14 q 486 15 540 -25 q 415 125 432 56 q 282 -8 378 14 q 153 21 210 -26 q 88 146 97 68 q 80 258 81 203 q 83 383 79 313 q 86 481 86 453 q 60 628 89 572 q -43 708 31 685 q 44 739 -8 733 q 150 728 97 744 q 240 653 203 711 q 278 506 278 594 q 277 378 278 435 q 276 301 276 322 q 276 256 275 279 q 279 206 276 233 q 321 144 286 146 q 383 206 358 144 q 404 340 408 261 l 404 344 q 399 694 407 633 q 608 690 485 674 q 594 435 592 551 q 607 240 596 318 q 657 146 617 154 q 713 200 692 139 q 729 310 729 246 l 729 324 l 729 340 l 729 344 q 731 476 729 390 q 732 614 732 561 q 728 696 732 667 q 928 688 828 679 z "},"щ":{"ha":1013,"x_min":-51,"x_max":1063,"o":"m 1010 38 q 1042 -143 1063 -44 q 946 -274 1022 -242 q 756 -298 876 -304 q 558 -326 635 -292 q 567 -242 557 -279 q 590 -182 576 -206 q 629 -141 603 -158 q 675 -115 656 -124 q 731 -100 694 -106 q 784 -94 767 -94 q 839 -92 801 -93 q 886 -92 876 -92 q 944 -63 925 -89 q 947 -3 964 -37 q 847 -19 900 -26 q 758 28 793 -12 q 724 128 736 50 q 592 -6 686 19 q 473 17 526 -24 q 403 126 419 57 q 269 -6 365 19 q 144 22 200 -25 q 78 149 89 69 q 70 262 71 207 q 73 385 69 317 q 76 482 76 454 q 49 629 78 574 q -51 708 19 685 q 35 739 -17 733 q 139 728 88 744 q 228 653 190 711 q 265 507 265 596 q 262 324 267 397 q 264 246 257 251 q 314 164 275 164 q 372 221 349 163 q 392 342 394 272 l 392 346 q 386 696 394 628 q 593 692 471 675 q 576 440 576 582 q 585 250 575 297 q 633 167 594 168 q 693 226 669 167 q 711 342 714 276 l 711 344 q 713 478 711 394 q 715 614 715 561 q 711 696 715 667 q 908 689 825 681 q 897 543 900 628 q 896 346 893 458 q 928 147 899 233 q 1010 38 957 60 z "},"ъ":{"ha":694,"x_min":-39,"x_max":688,"o":"m 508 481 q 558 472 531 481 q 616 440 585 463 q 667 371 647 418 q 688 258 688 324 q 378 -8 686 -19 q 259 -2 343 -7 q 118 0 175 3 q 135 274 132 94 q 132 521 139 454 q 9 573 57 515 q -26 725 -39 631 q 139 688 28 692 q 318 694 250 685 q 325 358 325 579 q 331 83 325 136 q 378 85 351 79 q 435 106 406 90 q 488 158 465 121 q 513 250 510 196 q 465 356 518 331 q 347 332 411 382 q 508 481 371 481 z "},"ы":{"ha":868,"x_min":-58,"x_max":885,"o":"m 436 481 q 485 471 458 481 q 542 440 511 461 q 593 372 574 418 q 613 263 613 326 q 308 -1 611 -10 q 213 4 267 0 q 137 9 160 8 q 53 8 114 10 q 68 518 83 217 q 33 647 63 603 q -58 722 3 692 q 29 742 -21 740 q 129 726 79 743 q 215 658 179 708 q 254 533 250 608 q 258 272 260 414 q 260 97 256 129 q 308 97 278 90 q 365 115 338 103 q 415 164 393 128 q 440 253 438 200 q 393 357 446 331 q 278 333 340 383 q 436 481 301 481 m 640 697 q 642 426 650 631 q 643 113 635 222 q 692 22 649 54 q 791 1 735 -10 q 885 65 847 11 q 817 165 838 81 q 799 357 796 249 q 813 555 803 465 q 835 697 824 644 q 640 697 753 685 z "},"ь":{"ha":626,"x_min":-43,"x_max":618,"o":"m 444 474 q 492 464 467 474 q 549 433 518 454 q 599 365 579 411 q 618 256 618 318 q 318 -8 617 -19 q 203 -2 285 -7 q 67 0 122 3 q 82 511 96 222 q 47 640 76 596 q -43 714 17 685 q 44 733 -6 732 q 142 718 93 735 q 226 651 190 701 q 265 526 261 601 q 269 267 271 410 q 271 94 267 124 q 317 93 289 88 q 374 110 346 99 q 424 158 401 122 q 449 246 446 193 q 401 349 453 324 q 289 326 350 375 q 444 474 311 474 z "},"э":{"ha":494,"x_min":-21,"x_max":503,"o":"m 271 688 q 440 563 376 663 q 496 296 503 463 q 369 32 489 122 q 124 -12 249 -58 q -21 197 -1 33 q 104 120 39 139 q 227 138 169 101 q 308 267 285 174 q 301 272 304 271 q 210 302 271 296 q 115 299 150 308 q 115 394 117 361 q 325 374 246 400 q 246 583 335 540 q 153 583 194 608 q 90 499 111 558 q 42 556 49 501 q 76 651 35 610 q 271 688 146 717 z "},"ю":{"ha":874,"x_min":25,"x_max":867,"o":"m 864 369 q 860 271 867 321 q 835 169 854 221 q 784 78 815 118 q 700 13 753 39 q 579 -12 647 -12 q 487 8 533 -12 q 399 68 440 29 q 330 174 357 107 q 301 325 303 242 q 217 325 260 332 q 213 135 213 226 q 226 1 214 43 q 25 -4 133 13 q 42 360 42 113 q 25 701 43 607 q 243 701 165 683 q 218 417 218 558 q 307 419 263 424 q 395 630 325 551 q 556 718 465 708 q 664 698 617 725 q 729 610 711 671 q 540 568 613 653 q 475 331 467 483 q 610 114 485 115 q 692 178 663 114 q 722 333 721 243 q 692 505 722 429 q 604 593 661 581 q 779 560 701 632 q 864 369 857 488 z "},"я":{"ha":593,"x_min":-85,"x_max":557,"o":"m 529 688 q 526 405 518 617 q 557 1 535 193 q 356 -1 476 10 q 368 506 371 317 q 344 588 367 567 q 278 610 322 608 q 201 576 228 611 q 174 476 174 542 q 335 297 174 304 q 293 158 315 243 q 251 27 271 72 q 197 -53 232 -18 q 116 -100 161 -89 q 32 -100 71 -111 q -37 -71 -7 -89 q -85 -31 -68 -53 q 60 63 6 -8 q 151 239 114 133 q 7 471 6 303 q 83 662 8 603 q 267 721 158 721 q 353 717 311 721 q 418 709 396 713 q 480 697 440 706 q 529 688 519 689 z "},"ё":{"ha":593,"x_min":11,"x_max":571,"o":"m 138 1082 q 216 1041 194 1082 q 236 947 238 1000 q 210 852 233 893 q 139 811 186 811 q 63 855 86 811 q 43 957 40 899 q 67 1045 44 1010 q 138 1082 90 1081 m 450 1071 q 528 1030 507 1071 q 549 936 550 989 q 522 841 546 882 q 451 800 499 800 q 376 844 399 800 q 356 946 353 888 q 380 1034 357 999 q 450 1071 403 1069 m 251 253 q 347 340 307 278 q 394 463 386 401 q 397 542 399 501 q 373 613 396 582 q 311 642 350 643 q 203 354 197 639 q 240 212 204 271 q 331 129 276 153 q 449 107 385 106 q 571 136 513 108 q 474 24 532 64 q 356 -23 417 -17 q 232 -7 294 -29 q 121 62 169 15 q 42 181 72 108 q 11 342 11 254 q 40 522 11 444 q 115 640 68 599 q 212 699 163 681 q 313 718 261 718 q 488 654 424 718 q 543 447 551 590 q 515 348 539 392 q 456 282 490 304 q 383 248 422 260 q 310 238 344 236 q 251 253 275 240 z "},"Ң":{"ha":814,"x_min":-51,"x_max":851,"o":"m 746 54 q 826 0 800 40 q 847 -85 851 -40 q 813 -173 843 -131 q 733 -235 782 -215 q 528 -262 669 -260 q 314 -297 386 -265 q 338 -187 313 -233 q 399 -119 364 -142 q 488 -83 435 -96 q 577 -69 540 -71 q 660 -65 614 -67 q 678 -65 672 -65 q 758 -33 758 -64 q 728 -1 757 -14 q 608 2 676 6 q 501 -12 540 -1 q 529 499 524 79 q 335 522 440 517 q 365 -4 335 103 q 115 -4 224 14 q 140 528 132 183 q -49 518 35 528 q -51 567 -51 540 q 142 600 3 585 q 139 790 144 728 q -40 1038 119 990 q 58 1085 -3 1075 q 179 1076 119 1094 q 283 993 239 1058 q 332 828 328 928 q 335 615 335 706 q 529 617 429 621 q 517 979 529 900 q 738 979 644 965 q 726 560 721 888 q 746 54 731 232 z "},"ң":{"ha":615,"x_min":19,"x_max":689,"o":"m 560 51 q 667 -39 644 26 q 657 -167 689 -104 q 567 -257 625 -231 q 387 -281 500 -287 q 200 -307 274 -275 q 208 -228 199 -262 q 231 -171 218 -193 q 268 -132 243 -149 q 312 -107 293 -115 q 363 -94 331 -99 q 413 -88 396 -89 q 465 -87 431 -87 q 510 -86 500 -86 q 558 -47 547 -83 q 532 6 569 -10 q 350 -6 435 15 q 374 331 368 69 q 207 329 299 336 q 235 1 210 89 q 19 0 118 17 q 42 378 43 185 q 19 694 40 572 q 214 700 106 685 q 207 418 207 649 q 375 419 296 425 q 364 700 375 633 q 554 700 475 689 q 544 401 540 615 q 560 51 547 188 z "},"Ү":{"ha":749,"x_min":-72,"x_max":775,"o":"m 507 449 q 505 210 499 293 q 535 -1 511 126 q 271 -1 418 17 q 304 237 299 82 q 296 449 310 392 q 118 811 157 760 q 33 898 75 869 q -72 931 -8 926 q 27 999 -36 978 q 160 1001 90 1021 q 275 917 231 982 q 404 656 344 818 q 407 639 404 642 q 408 647 408 639 q 410 656 408 656 q 463 781 440 711 q 499 915 485 850 q 515 989 513 981 q 775 981 635 960 q 729 914 754 957 q 673 807 704 871 q 619 694 642 743 q 559 563 596 644 q 507 449 522 482 z "},"ү":{"ha":675,"x_min":-47,"x_max":679,"o":"m 579 -260 q 615 -387 583 -332 q 679 -454 647 -443 q 578 -517 642 -510 q 462 -484 514 -524 q 403 -379 410 -444 q 396 72 388 -258 q 281 -17 356 0 q 151 12 208 -35 q 85 136 94 58 q 77 267 78 193 q 80 436 76 340 q 83 551 83 532 q 56 697 86 642 q -47 776 26 753 q 40 808 -12 801 q 143 799 92 814 q 231 729 194 785 q 268 585 268 674 q 266 416 268 499 q 263 313 264 333 q 267 235 263 292 q 319 150 276 153 q 383 206 357 147 q 401 276 397 236 q 403 325 403 293 l 403 326 q 404 329 403 328 q 404 700 413 649 q 601 700 518 688 q 578 317 586 631 q 579 -260 569 3 z "},"Ө":{"ha":865,"x_min":14,"x_max":828,"o":"m 321 981 q 598 983 485 1036 q 769 803 711 931 q 828 499 828 676 q 724 125 828 285 q 461 -35 621 -35 q 185 88 290 -35 q 74 450 79 210 q 18 447 49 450 q 15 496 14 475 q 42 502 22 497 q 74 510 61 507 q 107 685 78 607 q 181 810 136 764 q 278 882 225 857 q 387 906 332 907 q 490 881 442 904 q 346 764 399 856 q 286 540 293 672 q 622 542 483 560 q 321 981 603 932 m 451 89 q 569 189 525 93 q 622 421 613 285 q 283 454 497 451 q 327 172 285 258 q 451 89 369 86 z "},"ө":{"ha":594,"x_min":1,"x_max":586,"o":"m 582 363 q 574 235 586 299 q 531 110 561 171 q 437 10 500 49 q 288 -29 374 -29 q 190 -8 239 -29 q 99 55 142 14 q 28 167 56 96 q 1 326 1 238 q 78 606 1 501 q 263 722 154 710 q 375 701 326 729 q 443 610 424 674 q 262 581 335 649 q 181 382 189 514 q 433 382 297 397 q 321 558 419 535 q 492 542 410 604 q 582 363 575 481 m 319 101 q 399 156 368 100 q 435 293 429 213 q 182 293 326 308 q 319 101 200 103 z "},"–":{"ha":1157,"x_min":24,"x_max":1154,"o":"m 1151 467 q 1142 372 1142 428 q 1154 281 1142 315 q 24 282 388 303 q 28 464 50 389 q 1151 467 739 446 z "},"—":{"ha":1240,"x_min":35,"x_max":1240,"o":"m 1238 601 q 1228 506 1228 563 q 1240 415 1228 450 q 35 417 424 439 q 39 599 61 524 q 1238 601 800 579 z "},"“":{"ha":490,"x_min":33,"x_max":518,"o":"m 360 0 q 261 135 258 0 q 267 190 263 161 q 287 265 271 218 q 328 347 303 311 q 403 412 354 382 q 518 447 453 442 q 451 351 471 404 q 432 265 431 299 q 443 183 433 232 q 454 125 453 133 q 435 34 460 68 q 360 0 410 0 m 135 0 q 55 41 76 0 q 36 135 33 82 q 42 190 38 163 q 62 264 46 217 q 103 347 78 311 q 178 412 128 382 q 293 447 228 442 q 233 374 254 413 q 210 297 213 335 q 210 232 207 260 q 220 170 213 204 q 229 125 228 136 q 209 35 235 69 q 135 0 183 0 z "},"”":{"ha":518,"x_min":35,"x_max":519,"o":"m 193 957 q 257 933 233 957 q 287 882 281 910 q 292 822 293 854 q 286 767 290 796 q 266 692 282 739 q 224 610 250 646 q 149 545 199 575 q 35 510 100 515 q 94 583 74 544 q 118 660 115 622 q 118 725 121 697 q 108 787 115 753 q 99 832 100 821 q 118 923 93 889 q 193 957 143 957 m 418 957 q 498 916 476 957 q 517 822 519 875 q 511 767 515 794 q 491 693 507 740 q 450 610 475 646 q 376 545 425 575 q 261 510 326 515 q 328 606 308 553 q 347 692 347 660 q 335 775 346 724 q 324 832 324 826 q 344 922 318 888 q 418 957 369 957 z "},"„":{"ha":513,"x_min":-18,"x_max":467,"o":"m 140 200 q 204 176 181 200 q 234 125 228 153 q 239 65 240 97 q 233 10 238 39 q 213 -65 229 -18 q 172 -147 197 -111 q 97 -212 146 -182 q -18 -247 47 -242 q 42 -174 21 -212 q 65 -97 63 -135 q 65 -32 68 -60 q 55 30 63 -4 q 46 75 47 64 q 65 166 40 132 q 140 200 90 200 m 365 200 q 445 159 424 200 q 464 65 467 118 q 458 10 463 38 q 438 -64 454 -17 q 397 -147 422 -111 q 323 -212 372 -182 q 208 -247 274 -242 q 275 -151 256 -204 q 294 -65 294 -97 q 282 18 293 -33 q 271 75 271 69 q 291 165 265 131 q 365 200 317 200 z "},"…":{"ha":692,"x_min":35,"x_max":693,"o":"m 131 269 q 210 228 189 269 q 229 135 232 188 q 203 40 226 81 q 132 0 179 0 q 58 44 81 0 q 36 144 35 88 q 62 234 39 199 q 131 269 85 269 m 361 269 q 441 228 419 269 q 460 135 463 188 q 433 40 457 81 q 363 0 410 0 q 288 44 311 0 q 267 144 265 88 q 292 234 269 199 q 361 269 315 269 m 592 269 q 672 228 650 269 q 690 135 693 188 q 664 40 688 81 q 593 0 640 0 q 519 44 542 0 q 497 144 496 88 q 523 234 500 199 q 592 269 546 269 z "}}}
